<?xml version="1.0" encoding="utf-8"?>
<!-- Generator: Adobe Illustrator 19.2.1, SVG Export Plug-In . SVG Version: 6.00 Build 0)  -->
<!DOCTYPE svg PUBLIC "-//W3C//DTD SVG 1.1//EN" "http://www.w3.org/Graphics/SVG/1.1/DTD/svg11.dtd">
<svg version="1.1" id="Layer_1" xmlns="http://www.w3.org/2000/svg" xmlns:xlink="http://www.w3.org/1999/xlink" x="0px" y="0px"
	 viewBox="0 0 200 67.9" style="enable-background:new 0 0 200 67.9;" xml:space="preserve">
<style type="text/css">
	.st0{fill:#4F5859;}
	.st1{fill:#3DB0C7;}
	.st2{fill:#D6D0C3;}
	.st3{fill:#FCC62E;}
	.st4{fill:#E63642;}
</style>
<g>
	<g>
		<g>
			<g>
				<g>
					<path class="st0" d="M76.1,37.5c-0.4-2.6-2.9-4.6-5.8-4.6c-5.2,0-7.2,4.4-7.2,9.1c0,4.4,2,8.9,7.2,8.9c3.6,0,5.6-2.4,6-5.9H82
						c-0.6,6.6-5.1,10.8-11.6,10.8c-8.2,0-13-6.1-13-13.7c0-7.9,4.8-14,13-14c5.8,0,10.7,3.4,11.4,9.5H76.1z"/>
					<path class="st0" d="M84,35.9h5v3.6h0.1c1-2.4,3.6-4.1,6.1-4.1c0.4,0,0.8,0.1,1.1,0.2v4.9c-0.5-0.1-1.3-0.2-1.9-0.2
						c-3.9,0-5.2,2.8-5.2,6.1v8.6H84V35.9z"/>
					<path class="st0" d="M106.4,35.4c6,0,9.9,4,9.9,10.1c0,6.1-3.9,10.1-9.9,10.1c-6,0-9.9-4-9.9-10.1
						C96.5,39.4,100.4,35.4,106.4,35.4z M106.4,51.7c3.6,0,4.7-3.1,4.7-6.1c0-3.1-1.1-6.1-4.7-6.1c-3.6,0-4.6,3.1-4.6,6.1
						C101.7,48.6,102.8,51.7,106.4,51.7z"/>
					<path class="st0" d="M122.4,48.9c0,2.3,2,3.2,4,3.2c1.5,0,3.4-0.6,3.4-2.4c0-1.6-2.2-2.1-6-3c-3-0.7-6.1-1.7-6.1-5.1
						c0-4.9,4.2-6.1,8.3-6.1c4.2,0,8,1.4,8.4,6.1h-5c-0.1-2-1.7-2.6-3.6-2.6c-1.2,0-2.9,0.2-2.9,1.8c0,1.9,3,2.1,6,2.9
						c3.1,0.7,6.1,1.8,6.1,5.4c0,5-4.4,6.7-8.7,6.7c-4.4,0-8.8-1.7-9-6.7H122.4z"/>
					<path class="st0" d="M141.6,48.9c0,2.3,2,3.2,4,3.2c1.5,0,3.4-0.6,3.4-2.4c0-1.6-2.2-2.1-6-3c-3-0.7-6.1-1.7-6.1-5.1
						c0-4.9,4.2-6.1,8.3-6.1c4.2,0,8,1.4,8.4,6.1h-5c-0.1-2-1.7-2.6-3.6-2.6c-1.2,0-2.9,0.2-2.9,1.8c0,1.9,3,2.1,6,2.9
						c3.1,0.7,6.1,1.8,6.1,5.4c0,5-4.4,6.7-8.7,6.7c-4.4,0-8.8-1.7-9-6.7H141.6z"/>
					<path class="st0" d="M156,35.9h5v3.6h0.1c1-2.4,3.6-4.1,6.1-4.1c0.4,0,0.8,0.1,1.1,0.2v4.9c-0.5-0.1-1.3-0.2-1.9-0.2
						c-3.9,0-5.2,2.8-5.2,6.1v8.6H156V35.9z"/>
					<path class="st0" d="M174.1,46.8c0.1,3.3,1.8,4.9,4.7,4.9c2.1,0,3.8-1.3,4.1-2.5h4.6c-1.5,4.5-4.6,6.4-9,6.4
						c-6,0-9.8-4.1-9.8-10.1c0-5.7,4-10.1,9.8-10.1c6.5,0,9.7,5.5,9.3,11.4H174.1z M182.7,43.5c-0.5-2.7-1.6-4.1-4.2-4.1
						c-3.3,0-4.3,2.6-4.4,4.1H182.7z"/>
					<path class="st0" d="M190.8,39.5h-3.1v-3.5h3.1v-1.5c0-3.4,2.1-5.8,6.4-5.8c0.9,0,1.9,0.1,2.8,0.1v3.9
						c-0.6-0.1-1.3-0.1-1.9-0.1c-1.4,0-2,0.6-2,2.2v1.1h3.6v3.5h-3.6v15.6h-5.3V39.5z"/>
				</g>
			</g>
		</g>
	</g>
	<polygon class="st1" points="0,67.9 0,47.4 16.8,41.9 46.6,52.1 	"/>
	<polygon class="st2" points="29.7,26.1 0,36.4 16.8,41.9 46.6,31.7 	"/>
	<polygon class="st0" points="16.8,41.9 46.6,31.7 46.6,52.1 	"/>
	<polygon class="st3" points="46.6,0.2 46.6,20.6 29.7,26.1 0,15.9 	"/>
	<polygon class="st4" points="29.7,26.1 0,36.4 0,15.9 	"/>
</g>
<g>
	<path class="st0" d="M60,5.4h3.5l3.9,11h0l3.8-11h3.4v14h-2.3V8.6h0l-3.9,10.8h-2L62.4,8.6h0v10.8H60V5.4z"/>
	<path class="st0" d="M78.4,14.9c0,1.6,0.9,3,2.7,3c1.3,0,2.1-0.6,2.5-1.7h2.1c-0.5,2.2-2.4,3.5-4.6,3.5c-3.2,0-5-2.2-5-5.3
		c0-2.9,1.9-5.4,4.9-5.4c3.2,0,5.2,2.9,4.8,5.9H78.4z M83.7,13.5c-0.1-1.4-1-2.7-2.5-2.7c-1.5,0-2.6,1.2-2.7,2.7H83.7z"/>
	<path class="st0" d="M86.1,9.3h1.7v-3H90v3h2V11h-2v5.4c0,0.9,0.1,1.4,1.1,1.4c0.3,0,0.6,0,0.9-0.1v1.7c-0.5,0-1,0.1-1.5,0.1
		c-2.3,0-2.8-0.9-2.8-2.6v-6h-1.7V9.3z"/>
	<path class="st0" d="M101.8,17.2c0,0.5,0.1,0.8,0.5,0.8c0.1,0,0.3,0,0.5,0v1.5c-0.3,0.1-1,0.3-1.4,0.3c-0.9,0-1.5-0.3-1.7-1.2
		c-0.9,0.9-2.3,1.2-3.5,1.2c-1.8,0-3.5-1-3.5-3c0-2.5,2-2.9,3.9-3.2c1.6-0.3,3-0.1,3-1.4c0-1.2-1.2-1.4-2.1-1.4
		c-1.3,0-2.1,0.5-2.2,1.6h-2.2C93.3,9.8,95.6,9,97.8,9c2,0,4.1,0.8,4.1,2.9V17.2z M99.6,14.4c-0.7,0.5-1.8,0.4-2.7,0.6
		c-1,0.2-1.8,0.5-1.8,1.7c0,1,1.3,1.3,2.1,1.3c1,0,2.5-0.5,2.5-1.9V14.4z"/>
	<path class="st0" d="M113.5,19.4h-2.1v-1.4h0c-0.6,1.2-1.9,1.6-3.1,1.6c-3.2,0-4.7-2.4-4.7-5.4c0-3.7,2.2-5.3,4.4-5.3
		c1.3,0,2.7,0.5,3.4,1.6h0V5.4h2.2V19.4z M108.5,17.9c2,0,2.8-1.8,2.8-3.6c0-2.2-1.1-3.6-2.8-3.6c-2.1,0-2.8,1.9-2.8,3.7
		C105.7,16.2,106.6,17.9,108.5,17.9z"/>
	<path class="st0" d="M123.8,17.2c0,0.5,0.1,0.8,0.5,0.8c0.1,0,0.3,0,0.5,0v1.5c-0.3,0.1-1,0.3-1.4,0.3c-0.9,0-1.5-0.3-1.7-1.2
		c-0.9,0.9-2.3,1.2-3.5,1.2c-1.8,0-3.5-1-3.5-3c0-2.5,2-2.9,3.9-3.2c1.6-0.3,3-0.1,3-1.4c0-1.2-1.2-1.4-2.1-1.4
		c-1.3,0-2.1,0.5-2.2,1.6h-2.2c0.2-2.6,2.4-3.4,4.6-3.4c2,0,4.1,0.8,4.1,2.9V17.2z M121.6,14.4c-0.7,0.5-1.8,0.4-2.7,0.6
		c-1,0.2-1.8,0.5-1.8,1.7c0,1,1.3,1.3,2.1,1.3c1,0,2.5-0.5,2.5-1.9V14.4z"/>
	<path class="st0" d="M124.9,9.3h1.7v-3h2.2v3h2V11h-2v5.4c0,0.9,0.1,1.4,1.1,1.4c0.3,0,0.6,0,0.9-0.1v1.7c-0.5,0-1,0.1-1.5,0.1
		c-2.3,0-2.8-0.9-2.8-2.6v-6h-1.7V9.3z"/>
	<path class="st0" d="M140.6,17.2c0,0.5,0.1,0.8,0.5,0.8c0.1,0,0.3,0,0.5,0v1.5c-0.3,0.1-1,0.3-1.4,0.3c-0.9,0-1.5-0.3-1.7-1.2
		c-0.9,0.9-2.3,1.2-3.5,1.2c-1.8,0-3.5-1-3.5-3c0-2.5,2-2.9,3.9-3.2c1.6-0.3,3-0.1,3-1.4c0-1.2-1.2-1.4-2.1-1.4
		c-1.3,0-2.1,0.5-2.2,1.6H132c0.2-2.6,2.4-3.4,4.6-3.4c2,0,4.1,0.8,4.1,2.9V17.2z M138.4,14.4c-0.7,0.5-1.8,0.4-2.7,0.6
		c-1,0.2-1.8,0.5-1.8,1.7c0,1,1.3,1.3,2.1,1.3c1,0,2.5-0.5,2.5-1.9V14.4z"/>
	<path class="st0" d="M148.3,9.3h1.7V8.5c0-2.6,1.4-3,2.8-3c0.7,0,1.2,0,1.6,0.1v1.7c-0.3-0.1-0.6-0.1-1-0.1c-0.6,0-1.1,0.2-1.1,1.1
		v1h1.9V11h-1.9v8.5H150V11h-1.7V9.3z"/>
	<path class="st0" d="M155.2,9.3h2.1v2h0c0.3-1.1,1.6-2.2,3-2.2c0.5,0,0.6,0,0.8,0.1v2.2c-0.3,0-0.6-0.1-1-0.1
		c-1.5,0-2.7,1.2-2.7,3.5v4.8h-2.2V9.3z"/>
	<path class="st0" d="M161.2,14.4c0-3.1,1.9-5.3,5.1-5.3c3.3,0,5.1,2.2,5.1,5.3c0,3.1-1.9,5.4-5.1,5.4
		C163.1,19.7,161.2,17.5,161.2,14.4z M169.2,14.4c0-1.7-0.9-3.6-2.9-3.6c-2,0-2.9,1.8-2.9,3.6c0,1.8,0.9,3.6,2.9,3.6
		C168.4,17.9,169.2,16.1,169.2,14.4z"/>
	<path class="st0" d="M172.7,9.3h2.1v1.4h0.1c0.7-1,1.5-1.7,3.1-1.7c1.2,0,2.4,0.5,2.8,1.7c0.7-1,1.7-1.7,3.2-1.7
		c2.1,0,3.4,0.9,3.4,3.4v7h-2.2v-5.9c0-1.6-0.1-2.7-1.8-2.7c-1.5,0-2.2,1-2.2,2.7v5.9H179v-6.5c0-1.4-0.4-2.1-1.8-2.1
		c-1.2,0-2.2,0.9-2.2,2.6v6h-2.2V9.3z"/>
</g>
</svg>
