<?xml version="1.0" encoding="UTF-8" standalone="no"?>
<svg
   xmlns:dc="http://purl.org/dc/elements/1.1/"
   xmlns:cc="http://creativecommons.org/ns#"
   xmlns:rdf="http://www.w3.org/1999/02/22-rdf-syntax-ns#"
   xmlns:svg="http://www.w3.org/2000/svg"
   xmlns="http://www.w3.org/2000/svg"
   xmlns:sodipodi="http://sodipodi.sourceforge.net/DTD/sodipodi-0.dtd"
   xmlns:inkscape="http://www.inkscape.org/namespaces/inkscape"
   width="97.29"
   height="44.242"
   viewBox="0 0 97.29 44.242"
   version="1.1"
   id="svg4611"
   sodipodi:docname="sub-goettingen-white-small.svg"
   inkscape:version="0.92.2 (5c3e80d, 2017-08-06)">
  <metadata
     id="metadata4617">
    <rdf:RDF>
      <cc:Work
         rdf:about="">
        <dc:format>image/svg+xml</dc:format>
        <dc:type
           rdf:resource="http://purl.org/dc/dcmitype/StillImage" />
        <dc:title />
      </cc:Work>
    </rdf:RDF>
  </metadata>
  <defs
     id="defs4615" />
  <sodipodi:namedview
     pagecolor="#ffffff"
     bordercolor="#666666"
     borderopacity="1"
     objecttolerance="10"
     gridtolerance="10"
     guidetolerance="10"
     inkscape:pageopacity="0"
     inkscape:pageshadow="2"
     inkscape:window-width="1920"
     inkscape:window-height="878"
     id="namedview4613"
     showgrid="false"
     inkscape:zoom="21.33719"
     inkscape:cx="97.126607"
     inkscape:cy="6.1971416"
     inkscape:window-x="0"
     inkscape:window-y="189"
     inkscape:window-maximized="0"
     inkscape:current-layer="svg4611" />
  <path
     d="m 76.19,26.946 v 8.74 h 9.018 c 0.373,0 0.73,-0.02 1.073,-0.06 -0.496055,0.895059 -1.243519,1.625139 -2.15,2.1 -0.93,0.483 -2.04,0.725 -3.34,0.725 h -9.01 v -11.5 h 4.42 z m 0,-15.984 v 8.065 h 8.474 c 0.413,0 0.812,-0.02 1.19,-0.067 -0.26922,0.539 -0.645559,1.01742 -1.106,1.406 -1.104,0.95 -2.608,1.426 -4.507,1.426 h -8.47 v -10.83 h 4.42 z m 14.907,16.4 c -0.202,-0.275 -0.41,-0.54 -0.628,-0.784 -0.48,-0.692 -1.13,-1.248 -1.95,-1.668 -0.53,-0.313 -1,-0.544 -1.5,-0.735 0.89,-0.345 1.73,-0.89 2.51,-1.63 0.78,-0.76 1.4,-1.685 1.86,-2.774 0.48,-1.1 0.72,-2.3 0.72,-3.6 0,-2.09 -0.47,-3.91 -1.4,-5.46 -0.92,-1.57 -2.25,-2.77 -3.99,-3.6 -1.72,-0.84 -3.72,-1.26 -6,-1.26 H 70.44 V 3.07 h 14.715 c 2.28,0 4.284,0.422 6.012,1.27 1.74,0.83 3.07,2.03 3.986,3.6 0.934,1.556 1.4,3.378 1.4,5.465 0,1.296 -0.242,2.498 -0.725,3.6 -0.465,1.09 -1.087,2.014 -1.865,2.774 -0.776,0.74 -1.614,1.28 -2.514,1.63 1.62,0.62 2.97,1.68 4.06,3.18 1.09,1.5 1.63,3.36 1.63,5.57 0,2.28 -0.49,4.22 -1.45,5.83 -0.96,1.59 -2.3,2.79 -4.04,3.62 -0.46,0.22 -0.94,0.4 -1.43,0.56 0.39,-0.44 0.74,-0.91 1.05,-1.43 0.96,-1.61 1.45,-3.55 1.45,-5.83 0,-2.21 -0.54,-4.07 -1.63,-5.57 z M 23.97,5.652 c 0.574,0.415 1.135,0.876 1.677,1.382 l -3.68,3.626 C 21.207,9.918 20.397,9.34 19.535,8.926 18.683209,8.4989858 17.775685,8.1936727 16.839,8.019 c -0.94,-0.19 -1.97,-0.29 -3.09,-0.29 -1.11,0 -2.1,0.15 -2.97,0.45 0.129586,-0.4494293 0.317876,-0.8798064 0.56,-1.28 0.55,-0.9 1.34,-1.6 2.38,-2.1 1.04,-0.5 2.27,-0.76 3.71,-0.76 1.12,0 2.15,0.09 3.08,0.28 0.934539,0.1719659 1.840135,0.4749532 2.69,0.9 0.25,0.12 0.51,0.26 0.75,0.41 z M 21.11,31.75 c 0.122,-0.474 0.184,-0.984 0.184,-1.53 0,-1.71 -0.5,-3.013 -1.5,-3.91 -0.448526,-0.447047 -0.988579,-0.791617 -1.583,-1.01 -0.58,-0.243 -1.43,-0.44 -2.53,-0.597 l -4.46,-0.622 c -3.07,-0.43 -5.46,-1.44 -7.17,-3.03 -1.83,-1.71 -2.74,-4.11 -2.74,-7.2 0,-2.19 0.51,-4.12 1.53,-5.8 0.87,-1.42 2.04,-2.56 3.54,-3.44 C 5.46,6.23 5,8.08 5,10.17 c 0,3.09 0.914,5.5 2.746,7.2 1.71,1.59 4.1,2.6 7.175,3.03 l 4.46,0.62 c 1.11,0.16 1.96,0.36 2.54,0.6 0.61,0.22 1.13,0.56 1.58,1.01 1,0.9 1.51,2.2 1.51,3.91 0,1.83 -0.69,3.26 -2.07,4.28 -0.52,0.39 -1.12,0.7 -1.79,0.94 z M 0,36.18 3.708,32.52 c 1.774,1.767 3.716,3.037 5.83,3.81 2.144,0.76 4.656,1.14 7.54,1.14 1.986,0 3.8,-0.242 5.44,-0.725 1.086224,-0.326139 2.127579,-0.78635 3.1,-1.37 -0.638153,1.100358 -1.480976,2.068434 -2.483,2.852 -1.226,0.967 -2.66,1.703 -4.3,2.202 -1.64,0.48 -3.453,0.72 -5.44,0.72 -2.885,0 -5.397,-0.38 -7.54,-1.14 C 3.73,39.23 1.78,37.95 0,36.18 Z M 35.37,3.07 h 4.422 v 24.768 c 0,1.656 0.318,3.11 0.958,4.352 0.125,0.24 0.26,0.466 0.403,0.685 -0.736858,-0.153226 -1.446243,-0.417222 -2.104,-0.783 -1.166407,-0.66287 -2.112268,-1.653938 -2.72,-2.85 -0.64,-1.243 -0.96,-2.695 -0.96,-4.352 V 3.07 Z m 25.794,25.027 c 0,2.555 -0.587,4.827 -1.76,6.814 -1.176,1.99 -2.798,3.53 -4.872,4.61 -2.053,1.09 -4.37,1.64 -6.942,1.64 -2.556,0 -4.862,-0.54 -6.917,-1.63 -1.165181,-0.609157 -2.224185,-1.402734 -3.136,-2.35 1.716,0.69 3.594,1.04 5.632,1.04 2.57,0 4.88,-0.54 6.94,-1.63 2.07,-1.08 3.69,-2.62 4.87,-4.61 1.17,-1.98 1.76,-4.25 1.76,-6.81 V 3.07 h 4.42 v 25.027 z"
     id="path4609"
     style="fill:#ffffff;fill-opacity:1"
     inkscape:connector-curvature="0"
     sodipodi:nodetypes="ccsccsccccccsccsccccccccccsccsccsccscccssccccscccccccsccsscccccscccccsccscccccsccccccsccccsccccsccccscccccsccsccscccc" />
</svg>