<svg xmlns="http://www.w3.org/2000/svg" width="3543.603" height="1075.553" viewBox="0 0 3543.603 1075.553"><g fill="#003967"><path d="M303.9 785.064c-16.8-18.035-33.624-35.98-50.424-53.813a782.51 782.51 0 0 0-.38 14.538c-.147 6.08-.203 14.354-.203 24.83 0 2.713.022 6.078.1 10.08.057 4.006.124 8.21.19 12.608.07 4.396.157 8.85.293 13.38.123 4.53.246 8.726.392 12.606.124 3.88.248 7.267.394 10.184.11 2.914.246 4.878.38 5.92-2.087-.27-4.33-.403-6.796-.403-2.58 0-4.968.135-7.167.403.257-1.3.55-3.7.874-7.177.325-3.5.604-7.672.863-12.518.26-4.846.538-10.115.876-15.813a857.69 857.69 0 0 0 .784-17.06c.18-5.687.36-11.25.483-16.677.123-5.43.19-10.273.19-14.546 0-12.415-.035-23.07-.112-31.998-.045-8.928-.203-15.59-.472-19.986h3.107c7.873 8.546 16.318 17.688 25.314 27.456a6073.14 6073.14 0 0 0 26.747 28.89c8.873 9.51 17.273 18.482 25.224 26.96 7.94 8.46 14.894 15.68 20.85 21.625v-26.38c0-13.568-.103-26.792-.292-39.656-.202-12.864-.618-24.988-1.268-36.36 2.59.64 4.788.963 6.594.963 1.56 0 3.635-.324 6.214-.964-.27 2.837-.562 7.11-.875 12.796a2119.89 2119.89 0 0 0-.974 18.226c-.327 6.472-.606 12.808-.865 19.01-.257 6.2-.38 11.182-.38 14.927v11.642c0 4.396.023 8.994.08 13.77.077 4.778.122 9.6.2 14.446.056 4.845.124 9.376.19 13.57.068 4.205.09 7.852.09 10.97v6.392h-2.714c-14.87-17.193-30.705-34.813-47.506-52.846zM393.6 727.272c-.336-8.21-.695-16.588-1.076-25.112 1.68.246 3.297.482 4.855.674 1.56.202 3.106.29 4.654.29 1.547 0 3.107-.088 4.666-.29 1.525-.19 3.152-.428 4.833-.674-.392 8.524-.75 16.903-1.065 25.112a635.138 635.138 0 0 0-.482 25.11v33.354c0 8.545.157 16.945.482 25.21.314 8.278.673 16.42 1.065 24.45a105.72 105.72 0 0 0-9.5-.403c-3.363 0-6.526.135-9.51.403.382-8.03.74-16.172 1.077-24.45.314-8.265.47-16.665.47-25.21V752.38c0-8.534-.156-16.89-.47-25.108zM448.487 726.98c-.335-8.266-.684-16.542-1.076-24.82 5.833.246 11.597.482 17.36.674 5.744.202 11.542.29 17.363.29 5.82 0 11.575-.088 17.26-.29 5.687-.19 11.43-.428 17.262-.674a29.17 29.17 0 0 0-.595 5.81c0 1.953.202 3.88.595 5.832-4.15-.27-7.92-.525-11.35-.784-3.432-.258-7.043-.517-10.856-.773-3.827-.26-7.987-.483-12.518-.686-4.53-.202-9.96-.292-16.295-.292-.125 4.15-.282 8.086-.47 11.833-.203 3.756-.304 8.02-.304 12.797 0 5.047.045 9.96.102 14.735.077 4.79.1 8.414.1 10.87 5.687 0 10.79-.057 15.32-.19 4.52-.137 8.66-.294 12.405-.495 3.757-.19 7.2-.38 10.385-.584 3.164-.19 6.17-.414 9.017-.672a31.155 31.155 0 0 0-.583 6.012c0 1.952.2 3.88.582 5.81-3.363-.38-7.278-.695-11.73-.964a328.963 328.963 0 0 0-13.39-.48c-4.465-.058-8.66-.125-12.596-.192a585.6 585.6 0 0 0-9.408-.1c0 1.153-.024 2.432-.1 3.778a124.737 124.737 0 0 0-.103 5.137V797.76c0 7.38.045 13.46.102 18.237.077 4.788.157 8.41.28 10.856h13.593c4.913 0 9.712-.09 14.445-.292 4.71-.178 9.174-.447 13.38-.763 4.193-.336 7.862-.807 10.956-1.456-.268.898-.424 1.906-.48 3.005-.08 1.1-.102 2.098-.102 3.007 0 2.063.19 3.745.583 5.046a375.21 375.21 0 0 0-17.35-.403H465.07c-5.822 0-11.7.135-17.654.403.392-8.275.74-16.53 1.076-24.74.314-8.21.482-16.576.482-25.1v-33.366a671.078 671.078 0 0 0-.485-25.213zM546.42 727.272a5167.91 5167.91 0 0 0-1.055-25.112c4.89.246 9.778.482 14.635.674 4.844.202 9.712.29 14.636.29 4.913 0 9.79-.155 14.637-.48 4.855-.325 9.723-.483 14.636-.483 11.394 0 21.117 1.482 29.203 4.466 8.076 2.96 14.704 7.2 19.874 12.696 5.18 5.493 8.95 12.213 11.35 20.164 2.39 7.964 3.588 16.913 3.588 26.873 0 12.917-2.242 23.807-6.684 32.668-4.473 8.86-10.16 16.004-17.068 21.432-6.932 5.43-14.547 9.275-22.9 11.54-8.335 2.256-16.32 3.398-23.935 3.398-4.396 0-8.737-.065-13.01-.2-4.26-.136-8.59-.203-12.987-.203h-12.987c-4.273 0-8.614.135-12.987.403.38-8.03.728-16.172 1.054-24.45.315-8.265.493-16.665.493-25.21v-33.355c0-8.537-.18-16.893-.494-25.11zm17.54 99.58c2.725.65 6.415 1.144 11.057 1.458 4.655.324 9.444.48 14.355.48 7.112 0 14.222-.84 21.332-2.52 7.122-1.673 13.48-4.847 19.11-9.49 5.63-4.665 10.207-11.035 13.763-19.11 3.555-8.075 5.35-18.528 5.35-31.312 0-11.26-1.403-20.502-4.196-27.747-2.758-7.233-6.57-12.953-11.426-17.158-4.846-4.195-10.644-7.11-17.362-8.727-6.718-1.614-14.097-2.424-22.104-2.424-5.81 0-11.25.204-16.286.585-5.046.382-9.578.83-13.592 1.358a622.525 622.525 0 0 0-.876 19.48 788.654 788.654 0 0 0-.28 20.657v33.355c0 13.976.392 27.68 1.156 41.117zM698.274 726.98c-.326-8.266-.685-16.542-1.076-24.82 5.832.246 11.618.482 17.36.674 5.754.202 11.54.29 17.362.29 5.82 0 11.575-.088 17.26-.29 5.686-.19 11.428-.428 17.26-.674a29.34 29.34 0 0 0 0 11.642c-4.15-.27-7.92-.525-11.35-.784-3.432-.258-7.042-.517-10.856-.773-3.813-.26-7.985-.483-12.517-.686-4.53-.202-9.96-.292-16.284-.292-.123 4.15-.292 8.086-.482 11.833-.2 3.756-.28 8.02-.28 12.797 0 5.047.023 9.96.08 14.735.078 4.79.1 8.414.1 10.87 5.698 0 10.79-.057 15.32-.19 4.53-.137 8.66-.294 12.404-.495 3.757-.19 7.223-.38 10.385-.584 3.172-.19 6.18-.414 9.017-.672a30.998 30.998 0 0 0-.583 6.012c0 1.952.2 3.88.583 5.81-3.366-.38-7.27-.695-11.732-.964a329.22 329.22 0 0 0-13.38-.48c-4.45-.058-8.668-.125-12.605-.192a584.55 584.55 0 0 0-9.41-.1c0 1.153-.022 2.432-.102 3.778-.056 1.368-.078 3.072-.078 5.137V797.76c0 7.38.022 13.46.078 18.237.08 4.788.168 8.41.303 10.856h13.572c4.912 0 9.724-.09 14.445-.292 4.71-.178 9.185-.447 13.38-.763 4.206-.336 7.862-.807 10.967-1.456a13.333 13.333 0 0 0-.493 3.005 49.73 49.73 0 0 0-.1 3.007c0 2.063.202 3.745.594 5.046a376 376 0 0 0-17.36-.403H714.85c-5.822 0-11.7.135-17.653.403.392-8.275.75-16.53 1.076-24.74.325-8.21.482-16.576.482-25.1v-33.366c0-8.535-.157-16.935-.48-25.213zM796.205 727.272c-.325-8.21-.673-16.588-1.055-25.112 3.747.246 7.424.482 11.046.674 3.623.202 7.302.29 11.048.29 3.747 0 7.446-.155 11.06-.48a123.99 123.99 0 0 1 11.056-.483c5.43 0 10.61.52 15.522 1.55 4.892 1.03 9.208 2.748 12.888 5.137 3.69 2.398 6.593 5.528 8.737 9.398 2.13 3.88 3.185 8.735 3.185 14.557 0 6.213-1.392 11.528-4.162 15.994-2.792 4.463-6.18 8.14-10.194 11.058-4.004 2.904-8.3 5.17-12.887 6.785-4.598 1.624-8.76 2.68-12.517 3.194 1.56 1.94 3.69 4.667 6.404 8.143 2.726 3.5 5.754 7.357 9.118 11.553 3.365 4.194 6.853 8.59 10.475 13.188a3243.61 3243.61 0 0 0 10.476 13.19 532.26 532.26 0 0 0 9.5 11.528c2.97 3.5 5.36 6.146 7.175 7.962-1.95-.27-3.88-.403-5.807-.403H875.81c-1.93 0-3.8.135-5.606.403a2801.366 2801.366 0 0 0-8.827-12.223c-3.96-5.43-8.31-11.25-13.088-17.452a969.277 969.277 0 0 0-14.65-18.527c-4.978-6.135-9.53-11.35-13.68-15.612h-7.37v14.154c0 8.545.168 16.945.482 25.21.336 8.278.685 16.42 1.076 24.45-2.983-.27-6.146-.403-9.51-.403-3.365 0-6.515.135-9.488.403.38-8.03.73-16.172 1.055-24.45.314-8.265.493-16.665.493-25.21v-33.355c0-8.537-.178-16.893-.493-25.11zm22.308 36.953c2.142.11 4.497.18 7.076.18 4.003 0 8.187-.448 12.504-1.346 4.34-.92 8.31-2.502 11.923-4.756 3.632-2.266 6.64-5.306 9.038-9.12 2.378-3.812 3.59-8.622 3.59-14.454 0-5.036-.954-9.197-2.827-12.494-1.884-3.298-4.283-5.923-7.268-7.862a27.914 27.914 0 0 0-9.69-3.98c-3.5-.696-6.93-1.055-10.284-1.055-4.52 0-8.276.088-11.248.28-2.972.19-5.496.425-7.57.682-.258 7.112-.527 14.156-.775 21.13a545.063 545.063 0 0 0-.392 20.95v11.06c1.806.38 3.803.65 5.923.783zM916.073 817.25c1.727 2.4 3.858 4.564 6.394 6.506 2.513 1.93 5.45 3.52 8.816 4.755 3.364 1.224 7.11 1.84 11.26 1.84 4.26 0 8.096-.74 11.53-2.232 3.418-1.49 6.347-3.486 8.723-6.02 2.4-2.515 4.24-5.497 5.542-8.92 1.278-3.42 1.928-7.075 1.928-10.955 0-5.944-1.523-10.654-4.553-14.153-3.05-3.5-6.818-6.393-11.35-8.727-4.53-2.332-9.42-4.465-14.646-6.403-5.227-1.94-10.116-4.364-14.648-7.278-4.52-2.905-8.3-6.616-11.33-11.148-3.05-4.532-4.574-10.587-4.574-18.226 0-5.438.987-10.373 2.917-14.836a32.395 32.395 0 0 1 8.433-11.53c3.68-3.24 8.11-5.766 13.28-7.58 5.18-1.796 10.99-2.716 17.46-2.716 6.204 0 11.565.762 16.094 2.243 4.532 1.48 8.737 3.778 12.618 6.886a42.27 42.27 0 0 0-2.916 6.975c-.774 2.47-1.56 5.564-2.322 9.31h-2.333c-.65-1.816-1.526-3.778-2.625-5.92-1.1-2.132-2.58-4.096-4.442-5.898-1.883-1.82-4.115-3.344-6.706-4.577-2.58-1.222-5.688-1.84-9.31-1.84-3.61 0-6.953.583-9.98 1.75-3.03 1.166-5.698 2.804-7.954 4.945-2.277 2.142-4.003 4.7-5.236 7.66-1.235 2.974-1.84 6.213-1.84 9.69 0 6.078 1.526 10.88 4.554 14.354 3.05 3.5 6.82 6.438 11.35 8.838 4.532 2.38 9.397 4.52 14.647 6.394 5.226 1.873 10.117 4.173 14.636 6.886 4.52 2.715 8.312 6.2 11.34 10.476 3.05 4.26 4.553 9.96 4.553 17.07 0 5.942-1.054 11.562-3.184 16.866-2.144 5.294-5.25 9.915-9.31 13.863-4.073 3.947-9.063 6.976-14.94 9.117-5.888 2.12-12.57 3.196-20.076 3.196-8.007 0-14.512-1.077-19.492-3.196-4.98-2.142-9.14-4.563-12.505-7.278 1.156-2.96 1.962-5.652 2.434-8.053.438-2.378.854-5.45 1.246-9.197h2.32c1.047 2.32 2.437 4.676 4.197 7.064zM1072.852 723.975c3.622 8.713 7.323 17.55 11.07 26.468a4776.74 4776.74 0 0 0 11.25 26.568c3.756 8.794 7.266 16.98 10.552 24.54 3.32 7.56 6.282 14.31 8.928 20.265 2.67 5.944 4.823 10.465 6.505 13.582a35.1 35.1 0 0 0-5.137-.403h-10.296c-1.604 0-3.32.135-5.125.403-.91-2.983-2.144-6.57-3.69-10.766a395.133 395.133 0 0 0-5.138-13.188c-1.883-4.598-3.79-9.24-5.72-13.975-1.928-4.71-3.757-9.197-5.44-13.47-4.138-.124-8.332-.225-12.594-.302-4.273-.045-8.546-.09-12.808-.09-4.015 0-7.95.045-11.82.09-3.88.077-7.84.178-11.834.303a871.48 871.48 0 0 0-11.25 28.79c-3.363 9.128-5.898 16.653-7.56 22.608-2.22-.27-4.596-.403-7.187-.403-2.59 0-4.97.135-7.17.403a5099.314 5099.314 0 0 0 30.643-67.492 10128.293 10128.293 0 0 0 30.056-68.28h3.69c3.107 7.516 6.45 15.613 10.072 24.35zm-39.176-52.86c1.952-1.93 4.274-2.904 6.987-2.904 2.727 0 5.048.977 6.987 2.905 1.94 1.953 2.894 4.274 2.894 7 0 2.713-.953 5.035-2.894 6.975-1.94 1.94-4.26 2.917-6.987 2.917-2.713 0-5.035-.976-6.987-2.917-1.928-1.94-2.892-4.262-2.892-6.976 0-2.724.964-5.046 2.892-7zm1.56 103.955c3.353 0 6.852.08 10.475.19 3.623.134 7.11.202 10.476.202 3.623 0 7.234-.022 10.867-.09 3.6-.066 7.224-.18 10.846-.303l-21.523-49.26-21.14 49.26zm36.663-103.955c1.928-1.93 4.26-2.904 6.975-2.904s5.047.977 6.976 2.905c1.952 1.953 2.917 4.274 2.917 7 0 2.713-.964 5.035-2.916 6.975-1.928 1.94-4.26 2.917-6.975 2.917s-5.047-.976-6.976-2.917c-1.952-1.94-2.927-4.262-2.927-6.976 0-2.724.975-5.046 2.926-7zM1239.152 830.833c-2.512 1.222-5.552 2.322-9.108 3.297-3.565.965-7.524 1.84-11.92 2.613-4.397.785-8.996 1.166-13.773 1.166-10.217 0-19.66-1.458-28.33-4.352-8.657-2.916-16.115-7.358-22.395-13.303-6.27-5.943-11.182-13.21-14.726-21.813-3.568-8.603-5.34-18.393-5.34-29.372 0-10.99 1.77-20.794 5.34-29.384 3.543-8.593 8.534-15.88 14.925-21.826 6.393-5.944 14.055-10.475 22.98-13.57 8.928-3.106 18.752-4.665 29.485-4.665 8.535 0 16.32.875 23.362 2.624 7.043 1.748 13.3 3.847 18.707 6.302-1.034 1.817-1.863 4.273-2.513 7.38a338.987 338.987 0 0 0-1.55 7.738l-1.165.404c-1.3-1.56-3.095-3.297-5.427-5.25-2.333-1.928-5.047-3.802-8.155-5.604-3.106-1.82-6.595-3.344-10.475-4.577-3.87-1.222-8.13-1.84-12.785-1.84-7.637 0-14.715 1.233-21.24 3.7-6.54 2.445-12.216 6.237-17.07 11.328-4.835 5.115-8.626 11.576-11.34 19.403-2.715 7.828-4.08 17.09-4.08 27.837 0 10.72 1.365 19.996 4.08 27.813 2.715 7.83 6.505 14.3 11.34 19.402 4.854 5.113 10.53 8.894 17.07 11.35 6.525 2.444 13.603 3.68 21.24 3.68 4.655 0 8.95-.584 12.886-1.75 3.95-1.166 7.582-2.546 10.867-4.16 3.287-1.627 6.27-3.365 8.917-5.238 2.645-1.884 4.88-3.522 6.685-4.946l.785.775-1.75 11.44c-1.166 1.043-3.005 2.175-5.528 3.398zM1371.223 727.272c-.314-8.21-.674-16.588-1.065-25.112 1.683.246 3.31.482 4.846.674 1.548.202 3.105.29 4.653.29 1.56 0 3.108-.088 4.655-.29 1.56-.19 3.186-.428 4.867-.674-.393 8.524-.75 16.903-1.076 25.112a635.138 635.138 0 0 0-.482 25.11v33.354c0 8.545.157 16.945.482 25.21.325 8.278.684 16.42 1.075 24.45-2.983-.27-6.157-.403-9.523-.403-3.352 0-6.516.135-9.5.403.393-8.03.752-16.172 1.066-24.45.325-8.265.48-16.665.48-25.21v-17.452c-6.974-.123-13.727-.223-20.253-.29-6.538-.067-13.29-.09-20.277-.09-6.977 0-13.727.022-20.254.09-6.528.067-13.303.167-20.268.29v17.452c0 8.545.157 16.945.482 25.21.326 8.278.684 16.42 1.077 24.45-2.994-.27-6.157-.403-9.51-.403-3.364 0-6.526.135-9.51.403.394-8.03.752-16.172 1.066-24.45.325-8.265.494-16.665.494-25.21V752.38c0-8.534-.168-16.89-.494-25.108-.314-8.21-.673-16.588-1.065-25.112 1.682.246 3.298.482 4.845.674 1.548.202 3.108.29 4.666.29a35.83 35.83 0 0 0 4.644-.29c1.56-.19 3.186-.428 4.868-.674-.393 8.524-.75 16.903-1.077 25.112a635.138 635.138 0 0 0-.482 25.11v6.797c6.965.12 13.74.245 20.267.38 6.527.135 13.277.202 20.254.202 6.987 0 13.74-.067 20.277-.202 6.527-.135 13.28-.26 20.255-.38v-6.8a635.1 635.1 0 0 0-.482-25.108zM1426.503 817.25c1.737 2.4 3.88 4.564 6.392 6.506 2.514 1.93 5.462 3.52 8.828 4.755 3.363 1.224 7.11 1.84 11.248 1.84 4.274 0 8.11-.74 11.542-2.232 3.42-1.49 6.337-3.486 8.727-6.02 2.398-2.515 4.238-5.497 5.527-8.92 1.3-3.42 1.94-7.075 1.94-10.955 0-5.944-1.525-10.654-4.553-14.153-3.04-3.5-6.83-6.393-11.362-8.727-4.52-2.332-9.387-4.465-14.636-6.403-5.238-1.94-10.116-4.364-14.636-7.278-4.532-2.905-8.31-6.616-11.35-11.148-3.04-4.532-4.553-10.587-4.553-18.226 0-5.438.964-10.373 2.905-14.836 1.94-4.465 4.765-8.302 8.445-11.53 3.678-3.24 8.108-5.766 13.28-7.58 5.158-1.796 10.99-2.716 17.45-2.716 6.213 0 11.573.762 16.094 2.243 4.52 1.48 8.738 3.778 12.62 6.886a41.43 41.43 0 0 0-2.918 6.975c-.786 2.47-1.547 5.564-2.333 9.31h-2.334c-.64-1.816-1.514-3.778-2.602-5.92-1.1-2.132-2.59-4.096-4.465-5.898-1.884-1.82-4.105-3.344-6.696-4.577-2.59-1.222-5.686-1.84-9.31-1.84-3.622 0-6.942.583-9.992 1.75-3.027 1.166-5.687 2.804-7.94 4.945-2.266 2.142-4.015 4.7-5.25 7.66-1.21 2.974-1.84 6.213-1.84 9.69 0 6.078 1.526 10.88 4.555 14.354 3.05 3.5 6.83 6.438 11.35 8.838 4.53 2.38 9.42 4.52 14.648 6.394 5.225 1.873 10.117 4.173 14.646 6.886 4.532 2.715 8.3 6.2 11.34 10.476 3.04 4.26 4.564 9.96 4.564 17.07 0 5.942-1.076 11.562-3.207 16.866a39.81 39.81 0 0 1-9.31 13.863c-4.057 3.947-9.05 6.976-14.926 9.117-5.888 2.12-12.57 3.196-20.075 3.196-8.02 0-14.51-1.077-19.48-3.196-4.99-2.142-9.152-4.563-12.518-7.278 1.167-2.96 1.976-5.652 2.423-8.053.45-2.378.875-5.45 1.268-9.197h2.322c1.032 2.32 2.424 4.676 4.173 7.064zM1524.054 727.272a4014.35 4014.35 0 0 0-1.076-25.112c1.682.246 3.308.482 4.867.674 1.547.202 3.095.29 4.642.29 1.56 0 3.118-.088 4.665-.29 1.55-.19 3.164-.428 4.847-.674-.395 8.524-.752 16.903-1.066 25.112a634.844 634.844 0 0 0-.495 25.11v33.354c0 8.545.168 16.945.494 25.21.314 8.278.67 16.42 1.065 24.45a105.98 105.98 0 0 0-9.512-.403c-3.354 0-6.527.135-9.51.403.392-8.03.752-16.172 1.077-24.45.325-8.265.482-16.665.482-25.21V752.38c0-8.534-.16-16.89-.483-25.108zM1579.322 817.25c1.75 2.4 3.88 4.564 6.415 6.506 2.513 1.93 5.45 3.52 8.816 4.755 3.353 1.224 7.11 1.84 11.238 1.84 4.274 0 8.12-.74 11.542-2.232 3.443-1.49 6.336-3.486 8.737-6.02 2.388-2.515 4.227-5.497 5.517-8.92 1.3-3.42 1.94-7.075 1.94-10.955 0-5.944-1.514-10.654-4.553-14.153-3.04-3.5-6.81-6.393-11.34-8.727-4.53-2.332-9.41-4.465-14.646-6.403-5.238-1.94-10.117-4.364-14.636-7.278a38.665 38.665 0 0 1-11.35-11.148c-3.04-4.532-4.566-10.587-4.566-18.226 0-5.438.987-10.373 2.916-14.836 1.93-4.465 4.755-8.302 8.446-11.53 3.678-3.24 8.108-5.766 13.267-7.58 5.182-1.796 11.003-2.716 17.473-2.716 6.202 0 11.563.762 16.084 2.243 4.53 1.48 8.72 3.778 12.6 6.886a41.392 41.392 0 0 0-2.905 6.975c-.772 2.47-1.54 5.564-2.315 9.31h-2.333c-.65-1.816-1.527-3.778-2.614-5.92-1.11-2.132-2.59-4.096-4.477-5.898-1.86-1.82-4.104-3.344-6.685-4.577-2.59-1.222-5.675-1.84-9.31-1.84-3.61 0-6.952.583-9.98 1.75-3.05 1.166-5.698 2.804-7.962 4.945a21.917 21.917 0 0 0-5.227 7.66c-1.233 2.974-1.84 6.213-1.84 9.69 0 6.078 1.504 10.88 4.554 14.354 3.028 3.5 6.81 6.438 11.34 8.838 4.52 2.38 9.41 4.52 14.634 6.394 5.25 1.873 10.116 4.173 14.648 6.886a37.37 37.37 0 0 1 11.345 10.476c3.027 4.26 4.553 9.96 4.553 17.07 0 5.942-1.054 11.562-3.208 16.866a39.848 39.848 0 0 1-9.28 13.863c-4.084 3.947-9.064 6.976-14.95 9.117-5.878 2.12-12.573 3.196-20.066 3.196-8.03 0-14.523-1.077-19.493-3.196-4.98-2.142-9.15-4.563-12.504-7.278 1.166-2.96 1.96-5.652 2.412-8.053.47-2.378.874-5.45 1.267-9.197h2.332c1.03 2.32 2.433 4.676 4.16 7.064zM1772.085 830.833c-2.513 1.222-5.562 2.322-9.107 3.297-3.567.965-7.538 1.84-11.935 2.613-4.396.785-8.97 1.166-13.76 1.166-10.216 0-19.66-1.458-28.32-4.352-8.668-2.916-16.126-7.358-22.406-13.303-6.258-5.943-11.17-13.21-14.726-21.813-3.554-8.603-5.325-18.393-5.325-29.372 0-10.99 1.77-20.794 5.326-29.384 3.556-8.593 8.535-15.88 14.93-21.826 6.392-5.944 14.062-10.475 22.98-13.57 8.915-3.106 18.75-4.665 29.483-4.665 8.534 0 16.33.875 23.374 2.624 7.04 1.748 13.277 3.847 18.706 6.302-1.033 1.817-1.873 4.273-2.513 7.38a432.77 432.77 0 0 0-1.56 7.738l-1.154.404c-1.302-1.56-3.118-3.297-5.44-5.25-2.32-1.928-5.046-3.802-8.153-5.604-3.095-1.82-6.594-3.344-10.474-4.577-3.86-1.222-8.123-1.84-12.787-1.84-7.628 0-14.714 1.233-21.242 3.7-6.526 2.445-12.2 6.237-17.068 11.328-4.845 5.115-8.612 11.576-11.328 19.403-2.724 7.828-4.082 17.09-4.082 27.837 0 10.72 1.358 19.996 4.082 27.813 2.716 7.83 6.483 14.3 11.328 19.402 4.867 5.113 10.542 8.894 17.07 11.35 6.527 2.444 13.613 3.68 21.24 3.68 4.665 0 8.95-.584 12.898-1.75 3.948-1.166 7.558-2.546 10.856-4.16 3.297-1.627 6.26-3.365 8.928-5.238 2.646-1.884 4.866-3.522 6.683-4.946l.765.775-1.73 11.44c-1.164 1.043-3.004 2.175-5.537 3.398zM1904.167 727.272a5316.56 5316.56 0 0 0-1.065-25.112c1.682.246 3.308.482 4.845.674a35.87 35.87 0 0 0 4.655.29c1.56 0 3.106-.088 4.654-.29 1.547-.19 3.185-.428 4.854-.674a3797.37 3797.37 0 0 0-1.076 25.112 657.206 657.206 0 0 0-.472 25.11v33.354c0 8.545.157 16.945.472 25.21.324 8.278.684 16.42 1.076 24.45-2.97-.27-6.145-.403-9.51-.403-3.363 0-6.516.135-9.5.403.38-8.03.74-16.172 1.066-24.45.325-8.265.48-16.665.48-25.21v-17.452c-6.975-.123-13.727-.223-20.253-.29-6.54-.067-13.302-.09-20.278-.09-6.975 0-13.75.022-20.254.09-6.528.067-13.302.167-20.276.29v17.452c0 8.545.157 16.945.472 25.21.335 8.278.694 16.42 1.098 24.45-3.004-.27-6.168-.403-9.534-.403-3.342 0-6.514.135-9.486.403.382-8.03.74-16.172 1.055-24.45.335-8.265.493-16.665.493-25.21V752.38c0-8.534-.158-16.89-.494-25.108-.315-8.21-.674-16.588-1.056-25.112 1.682.246 3.285.482 4.846.674a35.8 35.8 0 0 0 4.64.29c1.573 0 3.12-.088 4.67-.29 1.547-.19 3.184-.428 4.865-.674-.403 8.524-.763 16.903-1.098 25.112a657.206 657.206 0 0 0-.472 25.11v6.797c6.975.12 13.748.245 20.277.38 6.504.135 13.28.202 20.254.202 6.977 0 13.74-.067 20.278-.202 6.526-.135 13.278-.26 20.254-.38v-6.8c0-8.534-.155-16.89-.48-25.108zM1959.066 726.98c-.336-8.266-.696-16.542-1.09-24.82 5.822.246 11.61.482 17.36.674 5.756.202 11.543.29 17.353.29 5.83 0 11.573-.088 17.27-.29 5.686-.19 11.44-.428 17.27-.674a29.317 29.317 0 0 0-.593 5.81c0 1.953.203 3.88.594 5.832-4.148-.27-7.938-.525-11.348-.784-3.433-.258-7.044-.517-10.868-.773-3.813-.26-7.975-.483-12.504-.686-4.533-.202-9.96-.292-16.297-.292-.123 4.15-.28 8.086-.482 11.833-.19 3.756-.29 8.02-.29 12.797 0 5.047.022 9.96.1 14.735.056 4.79.102 8.414.102 10.87 5.676 0 10.79-.057 15.32-.19 4.53-.137 8.646-.294 12.402-.495 3.747-.19 7.2-.38 10.385-.584 3.163-.19 6.17-.414 9.007-.672-.393 1.94-.57 3.95-.57 6.012 0 1.952.178 3.88.57 5.81-3.354-.38-7.268-.695-11.72-.964a329.743 329.743 0 0 0-13.392-.48 2970.48 2970.48 0 0 1-12.605-.192 583.41 583.41 0 0 0-9.398-.1c0 1.153-.046 2.432-.102 3.778-.077 1.368-.1 3.072-.1 5.137V797.76c0 7.38.022 13.46.1 18.237.056 4.788.157 8.41.28 10.856h13.594c4.912 0 9.712-.09 14.435-.292 4.72-.178 9.184-.447 13.39-.763 4.194-.336 7.84-.807 10.956-1.456-.27.898-.427 1.906-.492 3.005-.067 1.1-.09 2.098-.09 3.007 0 2.063.19 3.745.582 5.046a376.66 376.66 0 0 0-17.36-.403h-35.193c-5.82 0-11.71.135-17.666.403.394-8.275.754-16.53 1.09-24.74.314-8.21.472-16.576.472-25.1v-33.366c0-8.535-.16-16.935-.474-25.213zM2112.265 817.25c1.74 2.4 3.88 4.564 6.395 6.506 2.51 1.93 5.46 3.52 8.826 4.755 3.354 1.224 7.11 1.84 11.248 1.84 4.262 0 8.108-.74 11.54-2.232 3.42-1.49 6.337-3.486 8.715-6.02 2.398-2.515 4.238-5.497 5.54-8.92 1.3-3.42 1.94-7.075 1.94-10.955 0-5.944-1.525-10.654-4.555-14.153-3.05-3.5-6.83-6.393-11.36-8.727-4.52-2.332-9.4-4.465-14.636-6.403-5.24-1.94-10.118-4.364-14.638-7.278-4.53-2.905-8.31-6.616-11.35-11.148-3.04-4.532-4.554-10.587-4.554-18.226 0-5.438.965-10.373 2.905-14.836 1.94-4.465 4.766-8.302 8.444-11.53 3.68-3.24 8.108-5.766 13.28-7.58 5.157-1.796 10.99-2.716 17.45-2.716 6.214 0 11.575.762 16.095 2.243 4.52 1.48 8.736 3.778 12.617 6.886a41.352 41.352 0 0 0-2.92 6.975c-.78 2.47-1.546 5.564-2.33 9.31h-2.333c-.64-1.816-1.513-3.778-2.602-5.92-1.1-2.132-2.59-4.096-4.465-5.898-1.885-1.82-4.104-3.344-6.694-4.577-2.59-1.222-5.687-1.84-9.308-1.84-3.624 0-6.944.583-9.994 1.75-3.028 1.166-5.687 2.804-7.94 4.945-2.265 2.142-4.015 4.7-5.25 7.66-1.21 2.974-1.838 6.213-1.838 9.69 0 6.078 1.524 10.88 4.553 14.354 3.05 3.5 6.828 6.438 11.35 8.838 4.53 2.38 9.42 4.52 14.645 6.394 5.228 1.873 10.117 4.173 14.65 6.886 4.53 2.715 8.296 6.2 11.326 10.476 3.05 4.26 4.575 9.96 4.575 17.07 0 5.942-1.075 11.562-3.208 16.866a39.943 39.943 0 0 1-9.307 13.863c-4.06 3.947-9.052 6.976-14.928 9.117-5.89 2.12-12.573 3.196-20.076 3.196-8.02 0-14.51-1.077-19.48-3.196-4.99-2.142-9.154-4.563-12.517-7.278 1.166-2.96 1.96-5.652 2.422-8.053.45-2.378.874-5.45 1.268-9.197h2.31c1.045 2.32 2.437 4.676 4.185 7.064zM2236.665 712.243c-3.363 0-6.887.033-10.563.1-3.692.057-7.368.18-11.048.382-3.69.19-7.245.425-10.678.673-3.42.27-6.494.583-9.208.976.65-2.322.966-4.396.966-6.202 0-1.425-.314-3.432-.966-6.012 8.524.246 16.868.482 25.01.674 8.155.202 16.487.29 25.022.29s16.867-.088 25.02-.29c8.143-.19 16.488-.428 25.012-.674-.65 2.58-.965 4.644-.965 6.203 0 1.682.313 3.688.965 6.01-2.715-.392-5.787-.706-9.21-.975a526.6 526.6 0 0 0-10.664-.673c-3.69-.203-7.368-.325-11.048-.382-3.688-.066-7.21-.1-10.575-.1a1399.83 1399.83 0 0 0-.572 40.138v33.356c0 8.545.157 16.945.472 25.21.325 8.278.683 16.42 1.076 24.45a106.19 106.19 0 0 0-9.51-.403 106.1 106.1 0 0 0-9.5.403c.382-8.03.74-16.172 1.065-24.45.314-8.265.482-16.665.482-25.21V752.38c0-13.435-.2-26.825-.582-40.137zM2411.803 835.397a35.097 35.097 0 0 0-5.148-.403h-10.273c-1.626 0-3.332.135-5.148.403-.896-2.983-2.13-6.57-3.677-10.766a423.247 423.247 0 0 0-5.138-13.188c-1.873-4.598-3.79-9.24-5.72-13.975a918.596 918.596 0 0 1-5.43-13.47c-4.147-.124-8.342-.225-12.604-.302-4.262-.045-8.545-.09-12.807-.09-4.017 0-7.94.045-11.823.09-3.88.077-7.828.178-11.832.303a845.596 845.596 0 0 0-11.25 28.79c-3.363 9.128-5.898 16.653-7.568 22.608-2.21-.27-4.59-.403-7.167-.403-2.59 0-4.98.135-7.178.403a5272.97 5272.97 0 0 0 30.64-67.492c9.96-22.363 19.964-45.132 30.058-68.28h3.677c3.108 7.516 6.46 15.613 10.096 24.35 3.61 8.714 7.29 17.552 11.06 26.47 3.743 8.914 7.49 17.775 11.236 26.567 3.743 8.794 7.267 16.98 10.574 24.54a2633.4 2633.4 0 0 0 8.916 20.265c2.647 5.944 4.82 10.464 6.503 13.582zm-85.92-60.327c3.365 0 6.853.08 10.486.19 3.61.134 7.11.202 10.474.202 3.6 0 7.224-.022 10.835-.09a705.05 705.05 0 0 0 10.876-.303l-21.53-49.26-21.142 49.26zM2542.124 835.397a35.068 35.068 0 0 0-5.137-.403h-10.282c-1.604 0-3.318.135-5.126.403-.92-2.983-2.153-6.57-3.7-10.766a372.61 372.61 0 0 0-5.138-13.188c-1.873-4.598-3.79-9.24-5.72-13.975-1.93-4.71-3.758-9.197-5.43-13.47-4.127-.124-8.343-.225-12.605-.302-4.27-.045-8.524-.09-12.796-.09-4.005 0-7.95.045-11.834.09-3.88.077-7.826.178-11.83.303-4.14 10.082-7.887 19.683-11.25 28.79-3.365 9.128-5.876 16.653-7.56 22.608-2.196-.27-4.6-.403-7.177-.403-2.604 0-4.98.135-7.18.403a4936.212 4936.212 0 0 0 30.64-67.492 9120.907 9120.907 0 0 0 30.07-68.28h3.677c3.106 7.516 6.473 15.613 10.083 24.35 3.633 8.714 7.313 17.552 11.06 26.47 3.744 8.914 7.49 17.775 11.25 26.567 3.756 8.794 7.276 16.98 10.563 24.54 3.31 7.56 6.27 14.31 8.916 20.265 2.67 5.944 4.825 10.464 6.504 13.582zm-85.92-60.327c3.354 0 6.853.08 10.475.19 3.623.134 7.11.202 10.475.202 3.62 0 7.245-.022 10.868-.09 3.61-.066 7.244-.18 10.854-.303l-21.52-49.26-21.152 49.26zM2577.408 712.243c-3.363 0-6.887.033-10.564.1-3.678.057-7.357.18-11.034.382-3.702.19-7.247.425-10.68.673-3.43.27-6.504.583-9.22.976.652-2.322.98-4.396.98-6.202 0-1.425-.327-3.432-.98-6.012 8.535.246 16.87.482 25.012.674 8.154.202 16.486.29 25.033.29 8.523 0 16.867-.088 25.01-.29 8.142-.19 16.487-.428 25.01-.674-.64 2.58-.955 4.644-.955 6.203 0 1.682.314 3.688.956 6.01-2.717-.392-5.79-.706-9.198-.975-3.43-.248-6.984-.48-10.665-.673a279.663 279.663 0 0 0-11.048-.382c-3.7-.066-7.222-.1-10.586-.1-.38 13.312-.574 26.702-.574 40.138v33.356c0 8.545.17 16.945.48 25.21.328 8.278.686 16.42 1.08 24.45a106.41 106.41 0 0 0-9.51-.403c-3.366 0-6.527.135-9.513.403.393-8.03.752-16.172 1.078-24.45.315-8.265.483-16.665.483-25.21V752.38c0-13.435-.203-26.825-.595-40.137zM2659.75 817.25c1.736 2.4 3.88 4.564 6.394 6.506 2.51 1.93 5.462 3.52 8.828 4.755 3.353 1.224 7.11 1.84 11.246 1.84 4.26 0 8.1-.74 11.542-2.232 3.418-1.49 6.336-3.486 8.712-6.02 2.4-2.515 4.24-5.497 5.54-8.92 1.29-3.42 1.94-7.075 1.94-10.955 0-5.944-1.523-10.654-4.564-14.153-3.038-3.5-6.817-6.393-11.35-8.727-4.52-2.332-9.398-4.465-14.636-6.403-5.24-1.94-10.115-4.364-14.635-7.278a38.556 38.556 0 0 1-11.353-11.148c-3.048-4.532-4.554-10.587-4.554-18.226 0-5.438.968-10.373 2.906-14.836 1.94-4.465 4.755-8.302 8.435-11.53 3.68-3.24 8.12-5.766 13.29-7.58 5.16-1.796 10.98-2.716 17.453-2.716 6.21 0 11.56.762 16.08 2.243 4.53 1.48 8.75 3.778 12.63 6.886a41.26 41.26 0 0 0-2.915 6.975c-.786 2.47-1.56 5.564-2.335 9.31h-2.332c-.64-1.816-1.522-3.778-2.603-5.92-1.098-2.132-2.6-4.096-4.463-5.898-1.88-1.82-4.104-3.344-6.693-4.577-2.59-1.222-5.687-1.84-9.31-1.84s-6.942.583-9.992 1.75c-3.03 1.166-5.686 2.804-7.94 4.945-2.264 2.142-4.017 4.7-5.25 7.66-1.224 2.974-1.838 6.213-1.838 9.69 0 6.078 1.522 10.88 4.553 14.354 3.052 3.5 6.83 6.438 11.35 8.838 4.53 2.38 9.42 4.52 14.647 6.394 5.23 1.873 10.117 4.173 14.647 6.886 4.53 2.715 8.3 6.2 11.328 10.476 3.05 4.26 4.575 9.96 4.575 17.07 0 5.942-1.075 11.562-3.205 16.866a40.023 40.023 0 0 1-9.31 13.863c-4.063 3.947-9.05 6.976-14.93 9.117-5.888 2.12-12.572 3.196-20.073 3.196-8.02 0-14.514-1.077-19.484-3.196-4.99-2.142-9.148-4.563-12.515-7.278 1.165-2.96 1.962-5.652 2.423-8.053.447-2.378.873-5.45 1.268-9.197h2.31c1.047 2.32 2.436 4.676 4.185 7.064zM2795.208 784.188v12.023h-48.27V784.19h48.27zM2979.05 722.707c-.113-9.948-.428-16.803-.965-20.548 1.436.245 2.78.48 4.08.673 1.283.202 2.58.29 3.882.29 1.683 0 3.61-.324 5.81-.964-.383 4.52-.76 9.913-1.166 16.194-.382 6.26-.696 12.987-.963 20.165-.247 7.178-.517 14.545-.763 22.104-.27 7.57-.473 14.904-.585 22.016-.134 8.657-1.46 16.42-3.97 23.26-2.534 6.864-6.123 12.685-10.768 17.464-4.665 4.788-10.385 8.398-17.182 10.867-6.772 2.444-14.56 3.68-23.352 3.68-19.4 0-33.51-4.397-42.282-13.19-8.792-8.792-13.187-22.688-13.187-41.697 0-6.08.154-11.464.493-16.194.314-4.712.47-9.535.47-14.448 0-10.855-.133-20.49-.404-28.89-.246-8.41-.518-15.522-.763-21.332 1.55.246 3.23.482 5.047.674a45.08 45.08 0 0 0 5.046.29c1.414 0 2.806-.088 4.15-.29 1.367-.19 2.757-.428 4.193-.674-.267 2.838-.536 6.563-.783 11.148a975.39 975.39 0 0 0-.764 15.61c-.29 5.812-.472 12.09-.604 18.81-.11 6.718-.18 13.717-.18 20.95 0 4.385.068 8.96.18 13.67a97.78 97.78 0 0 0 1.368 13.773c.783 4.465 2.04 8.727 3.79 12.786 1.728 4.083 4.217 7.638 7.448 10.677 3.23 3.04 7.312 5.43 12.224 7.178 4.91 1.75 10.99 2.615 18.235 2.615 7.11 0 13.08-1.032 17.946-3.106 4.843-2.065 8.815-4.778 11.93-8.145 3.096-3.364 5.52-7.244 7.272-11.64a65.63 65.63 0 0 0 3.765-13.75c.788-4.8 1.235-9.578 1.35-14.357.132-4.776.2-9.185.2-13.188 0-18.36-.067-32.524-.2-42.483zM3091.742 785.064a13331.96 13331.96 0 0 0-50.425-53.813c-.136 3.613-.25 8.46-.382 14.538-.135 6.08-.202 14.354-.202 24.83 0 2.713.022 6.078.09 10.08.068 4.006.134 8.21.202 12.608.068 4.396.156 8.85.292 13.38.134 4.53.267 8.726.403 12.606.113 3.88.247 7.267.38 10.184.134 2.914.247 4.878.385 5.92-2.066-.27-4.33-.403-6.798-.403-2.582 0-4.98.135-7.178.403.267-1.3.56-3.7.895-7.177.313-3.5.584-7.672.85-12.518.25-4.846.564-10.115.88-15.813.313-5.677.58-11.374.783-17.06.202-5.687.356-11.25.47-16.677.137-5.43.2-10.273.2-14.546 0-12.415-.042-23.07-.087-31.998-.065-8.928-.226-15.59-.493-19.986h3.096c7.898 8.546 16.33 17.688 25.324 27.456 8.973 9.756 17.9 19.39 26.76 28.89 8.86 9.51 17.272 18.482 25.214 26.96 7.94 8.46 14.89 15.68 20.835 21.625v-26.38c0-13.568-.09-26.792-.267-39.656-.202-12.864-.63-24.988-1.28-36.36 2.58.64 4.78.963 6.596.963 1.55 0 3.634-.324 6.214-.964-.27 2.837-.563 7.11-.876 12.796-.337 5.687-.65 11.765-.964 18.226-.337 6.472-.63 12.808-.875 19.01-.27 6.2-.382 11.182-.382 14.927v11.642c0 4.396.026 8.994.09 13.77.068 4.778.11 9.6.18 14.446.07 4.845.135 9.376.203 13.57.066 4.205.09 7.852.09 10.97v6.392h-2.715c-14.85-17.193-30.708-34.813-47.506-52.846zM3181.44 727.272c-.336-8.21-.695-16.588-1.077-25.112 4.91.246 9.804.482 14.646.674 4.845.202 9.712.29 14.65.29 4.91 0 9.776-.155 14.623-.48 4.868-.325 9.735-.483 14.646-.483 11.39 0 21.105 1.482 29.205 4.466 8.073 2.96 14.688 7.2 19.87 12.696 5.183 5.493 8.952 12.213 11.33 20.164 2.4 7.964 3.61 16.913 3.61 26.873 0 12.917-2.243 23.807-6.707 32.668-4.463 8.86-10.14 16.004-17.047 21.432-6.933 5.43-14.556 9.275-22.9 11.54-8.345 2.256-16.33 3.398-23.954 3.398-4.398 0-8.73-.065-12.99-.2a410.08 410.08 0 0 0-12.988-.203h-12.985c-4.286 0-8.612.135-13.01.403.38-8.03.74-16.172 1.075-24.45.314-8.265.473-16.665.473-25.21v-33.355c0-8.537-.157-16.893-.47-25.11zm17.54 99.58c2.713.65 6.393 1.144 11.06 1.458 4.642.324 9.44.48 14.355.48 7.11 0 14.22-.84 21.332-2.52 7.108-1.673 13.48-4.847 19.108-9.49 5.608-4.665 10.21-11.035 13.75-19.11 3.566-8.075 5.34-18.528 5.34-31.312 0-11.26-1.393-20.502-4.172-27.747-2.76-7.233-6.596-12.953-11.44-17.158-4.843-4.195-10.63-7.11-17.362-8.727-6.705-1.614-14.086-2.424-22.112-2.424-5.788 0-11.238.204-16.265.585-5.045.382-9.576.83-13.593 1.358a605.04 605.04 0 0 0-.872 19.48 771.066 771.066 0 0 0-.293 20.657v33.355c0 13.976.403 27.68 1.165 41.117z"/><g><path d="M101.62 960.346c-.122-9.947-.448-16.81-.975-20.557 1.424.268 2.793.493 4.082.683 1.29.19 2.59.28 3.88.28 1.683 0 3.624-.313 5.82-.964-.38 4.53-.784 9.925-1.165 16.194-.38 6.28-.718 12.986-.975 20.165-.258 7.177-.516 14.557-.774 22.115-.27 7.56-.448 14.905-.583 22.004-.123 8.67-1.458 16.43-3.97 23.282-2.512 6.84-6.112 12.674-10.767 17.452-4.655 4.777-10.375 8.4-17.16 10.854-6.796 2.468-14.58 3.69-23.372 3.69-19.39 0-33.487-4.396-42.28-13.2C4.587 1053.575.19 1039.67.19 1020.66c0-6.078.158-11.474.494-16.195.315-4.72.482-9.532.482-14.445 0-10.855-.123-20.49-.39-28.9-.25-8.39-.518-15.512-.776-21.332 1.558.27 3.24.494 5.046.684 1.806.19 3.488.28 5.036.28 1.414 0 2.804-.09 4.173-.28a89.815 89.815 0 0 0 4.172-.684c-.258 2.85-.517 6.572-.785 11.147-.248 4.6-.517 9.803-.763 15.612a684.89 684.89 0 0 0-.597 18.817c-.123 6.73-.19 13.706-.19 20.95 0 4.398.067 8.95.19 13.662a96.774 96.774 0 0 0 1.358 13.77c.786 4.465 2.042 8.728 3.792 12.808a31.568 31.568 0 0 0 7.47 10.655c3.23 3.052 7.288 5.44 12.212 7.177 4.913 1.75 10.99 2.625 18.235 2.625 7.1 0 13.088-1.03 17.933-3.106 4.845-2.05 8.815-4.778 11.933-8.132 3.097-3.364 5.517-7.244 7.267-11.64a64.783 64.783 0 0 0 3.77-13.772c.784-4.78 1.245-9.578 1.367-14.356.136-4.777.192-9.174.192-13.188 0-18.347-.056-32.512-.192-42.472zM214.29 1022.692a12410.78 12410.78 0 0 0-50.425-53.81c-.123 3.62-.246 8.478-.38 14.535-.134 6.078-.18 14.354-.18 24.83 0 2.714.022 6.08.08 10.093.078 4.005.122 8.21.2 12.606a925.2 925.2 0 0 0 .28 13.368c.137 4.53.27 8.737.406 12.618.124 3.87.25 7.28.382 10.184.136 2.905.258 4.88.38 5.91-2.062-.26-4.326-.382-6.773-.382-2.59 0-4.99.123-7.188.38.258-1.3.548-3.677.874-7.176.325-3.5.618-7.66.886-12.518.248-4.844.54-10.115.853-15.79a676.59 676.59 0 0 0 .785-17.07c.202-5.697.36-11.26.482-16.678.124-5.438.203-10.283.203-14.545 0-12.404-.045-23.08-.102-32.01-.067-8.904-.224-15.565-.493-19.962h3.105c7.884 8.524 16.32 17.675 25.314 27.433 8.994 9.77 17.91 19.402 26.758 28.89 8.86 9.512 17.26 18.507 25.21 26.963 7.963 8.48 14.895 15.68 20.85 21.624v-26.38c0-13.57-.09-26.78-.28-39.655-.2-12.855-.628-24.98-1.278-36.36 2.59.65 4.79.964 6.595.964 1.56 0 3.633-.314 6.213-.965-.258 2.85-.538 7.11-.875 12.806-.313 5.698-.65 11.755-.964 18.226-.337 6.472-.617 12.797-.875 19.01-.258 6.203-.38 11.182-.38 14.94v11.617c0 4.396.02 8.994.087 13.77.07 4.803.135 9.602.19 14.458.078 4.844.124 9.366.203 13.57.056 4.206.1 7.86.1 10.958v6.403h-2.714c-14.87-17.192-30.706-34.812-47.53-52.858zM303.99 964.91c-.314-8.21-.672-16.576-1.055-25.12 1.683.268 3.286.493 4.835.683 1.558.19 3.105.28 4.654.28 1.55 0 3.106-.09 4.666-.28a132.2 132.2 0 0 0 4.845-.684c-.382 8.544-.74 16.91-1.077 25.12a656.908 656.908 0 0 0-.472 25.11v33.366c0 8.524.157 16.937.472 25.213.335 8.276.694 16.407 1.077 24.425-2.962-.258-6.146-.38-9.51-.38-3.366 0-6.53.122-9.49.38.383-8.018.74-16.148 1.055-24.426.337-8.277.494-16.69.494-25.214V990.02c0-8.533-.158-16.9-.494-25.11zM386.903 1045.48a4943.34 4943.34 0 0 0-13.67-33.935 9483.318 9483.318 0 0 0-14.94-36.45 5119.24 5119.24 0 0 0-14.645-35.306c1.816.268 3.566.493 5.248.683 1.683.19 3.298.28 4.845.28 1.55 0 3.165-.09 4.858-.28 1.672-.19 3.42-.415 5.237-.684a952.166 952.166 0 0 0 9.398 26.87 1322.374 1322.374 0 0 0 10.857 28.6 5906.06 5906.06 0 0 0 11.732 29.473c4.016 9.96 8.085 19.854 12.225 29.677 2.333-5.293 4.844-11.216 7.56-17.742 2.712-6.528 5.45-13.325 8.243-20.366 2.77-7.044 5.528-14.222 8.242-21.535 2.726-7.29 5.34-14.31 7.852-21.04a983.022 983.022 0 0 0 6.886-18.818 981.267 981.267 0 0 0 5.25-15.12c2.846.65 5.224.966 7.165.966 1.94 0 4.32-.314 7.166-.965a3301.39 3301.39 0 0 0-29.08 66.91 2327.802 2327.802 0 0 0-26.75 66.327 52.008 52.008 0 0 0-6.414-.38c-2.59 0-4.71.122-6.392.38a5464.48 5464.48 0 0 0-10.87-27.546zM489.198 964.62c-.326-8.277-.672-16.554-1.053-24.83 5.81.268 11.595.493 17.36.683 5.743.19 11.53.28 17.35.28 5.822 0 11.563-.09 17.262-.28 5.685-.19 11.44-.415 17.247-.684a30.24 30.24 0 0 0-.583 5.82c0 1.94.203 3.88.584 5.82a973.04 973.04 0 0 1-11.35-.773c-3.408-.26-7.042-.528-10.845-.774-3.825-.27-7.998-.494-12.517-.684-4.52-.192-9.96-.282-16.296-.282-.134 4.128-.29 8.074-.472 11.82-.2 3.746-.3 8.01-.3 12.81 0 5.033.044 9.945.1 14.736.066 4.777.1 8.39.1 10.855 5.687 0 10.79-.068 15.31-.203 4.53-.122 8.68-.292 12.426-.482 3.747-.19 7.2-.392 10.376-.583 3.15-.19 6.18-.414 9.027-.673a30.236 30.236 0 0 0-.594 6.013c0 1.938.2 3.87.593 5.818-3.387-.403-7.29-.718-11.752-.975-4.44-.258-8.916-.414-13.37-.483-4.462-.064-8.666-.134-12.604-.2-3.947-.057-7.09-.09-9.41-.09a79.11 79.11 0 0 1-.1 3.792 124.07 124.07 0 0 0-.1 5.136v19.19c0 7.368.044 13.446.1 18.234.066 4.79.157 8.402.29 10.857h13.57c4.914 0 9.736-.1 14.47-.278 4.71-.202 9.15-.46 13.37-.786 4.193-.314 7.86-.807 10.944-1.457a15.16 15.16 0 0 0-.47 3.004c-.068 1.1-.1 2.108-.1 3.006 0 2.075.19 3.746.57 5.046a390.47 390.47 0 0 0-17.338-.38h-35.206c-5.82 0-11.698.122-17.642.38.38-8.275.728-16.51 1.053-24.73.314-8.197.494-16.573.494-25.108v-33.354c0-8.55-.18-16.937-.494-25.214zM587.153 964.91c-.337-8.21-.684-16.576-1.078-25.12 3.747.268 7.438.493 11.06.683 3.61.19 7.29.28 11.045.28 3.758 0 7.438-.156 11.048-.47 3.635-.326 7.313-.494 11.07-.494 5.44 0 10.598.515 15.51 1.547 4.912 1.043 9.21 2.758 12.897 5.137 3.68 2.398 6.596 5.54 8.726 9.42 2.132 3.87 3.21 8.727 3.21 14.534 0 6.216-1.402 11.553-4.172 16.017-2.782 4.452-6.18 8.132-10.185 11.036-4.014 2.917-8.31 5.183-12.896 6.796-4.6 1.615-8.77 2.693-12.516 3.198a753.27 753.27 0 0 1 6.416 8.15c2.713 3.478 5.742 7.337 9.107 11.53 3.364 4.207 6.853 8.605 10.474 13.19 3.612 4.598 7.1 8.994 10.476 13.19a433.594 433.594 0 0 0 9.5 11.538c2.972 3.49 5.36 6.136 7.166 7.952a43.93 43.93 0 0 0-5.81-.38h-11.44c-1.953 0-3.814.122-5.63.38-1.928-2.713-4.878-6.795-8.814-12.222-3.948-5.43-8.323-11.24-13.1-17.454a970.785 970.785 0 0 0-14.636-18.526c-4.99-6.125-9.543-11.34-13.67-15.61h-7.38v14.174c0 8.524.157 16.937.493 25.213.314 8.276.674 16.407 1.055 24.425-2.972-.258-6.125-.38-9.488-.38-3.366 0-6.55.122-9.512.38.394-8.018.74-16.148 1.078-24.426a667.24 667.24 0 0 0 .482-25.214V990.02a662.79 662.79 0 0 0-.485-25.11zm22.295 36.945c2.133.135 4.487.2 7.067.2 4.016 0 8.186-.46 12.516-1.367 4.33-.897 8.312-2.49 11.934-4.756 3.61-2.253 6.617-5.293 9.018-9.105 2.39-3.814 3.588-8.636 3.588-14.445 0-5.047-.942-9.22-2.803-12.518-1.883-3.297-4.317-5.91-7.29-7.85-2.984-1.94-6.19-3.274-9.69-3.98-3.488-.708-6.92-1.066-10.284-1.066-4.52 0-8.278.09-11.237.29a137.88 137.88 0 0 0-7.57.675c-.27 7.122-.518 14.153-.786 21.15a589.11 589.11 0 0 0-.38 20.94v11.058c1.814.393 3.776.64 5.918.775zM706.99 1054.892a32.142 32.142 0 0 0 6.4 6.492c2.514 1.94 5.476 3.533 8.828 4.757 3.366 1.235 7.1 1.84 11.25 1.84 4.262 0 8.11-.74 11.553-2.22 3.41-1.49 6.314-3.5 8.713-6.012 2.39-2.536 4.23-5.496 5.53-8.928 1.28-3.42 1.93-7.077 1.93-10.96 0-5.94-1.504-10.663-4.554-14.15-3.03-3.49-6.82-6.405-11.34-8.738-4.52-2.32-9.41-4.464-14.636-6.392-5.25-1.953-10.116-4.362-14.647-7.27-4.53-2.914-8.31-6.638-11.35-11.158-3.04-4.52-4.553-10.598-4.553-18.224 0-5.43.964-10.375 2.916-14.84 1.928-4.462 4.732-8.31 8.433-11.54 3.68-3.23 8.097-5.752 13.28-7.56 5.158-1.815 10.99-2.713 17.45-2.713 6.212 0 11.574.74 16.094 2.22 4.53 1.504 8.726 3.79 12.606 6.888a41.473 41.473 0 0 0-2.905 6.986c-.774 2.456-1.547 5.55-2.332 9.296h-2.322c-.65-1.793-1.526-3.77-2.612-5.9-1.11-2.14-2.59-4.103-4.476-5.92-1.873-1.816-4.093-3.32-6.673-4.553-2.59-1.234-5.697-1.84-9.32-1.84s-6.954.582-9.992 1.74c-3.038 1.165-5.673 2.813-7.95 4.944-2.255 2.13-4.005 4.688-5.238 7.648-1.233 2.983-1.84 6.213-1.84 9.712 0 6.08 1.526 10.857 4.554 14.346 3.04 3.487 6.84 6.438 11.362 8.825 4.51 2.4 9.397 4.532 14.636 6.394 5.238 1.885 10.105 4.172 14.646 6.886 4.508 2.715 8.3 6.213 11.338 10.477 3.04 4.262 4.554 9.958 4.554 17.068 0 5.945-1.065 11.575-3.196 16.868a39.618 39.618 0 0 1-9.31 13.873c-4.08 3.938-9.05 6.99-14.937 9.12-5.877 2.13-12.573 3.195-20.053 3.195-8.03 0-14.536-1.065-19.516-3.196-4.955-2.13-9.127-4.565-12.492-7.28 1.167-2.97 1.974-5.663 2.41-8.04.46-2.4.888-5.474 1.27-9.22h2.33c1.03 2.336 2.422 4.69 4.16 7.08zM804.55 964.91c-.336-8.21-.672-16.576-1.078-25.12 1.683.268 3.297.493 4.845.683 1.56.19 3.107.28 4.666.28 1.55 0 3.096-.09 4.655-.28 1.55-.19 3.152-.415 4.835-.684a5029.79 5029.79 0 0 0-1.055 25.12 656.358 656.358 0 0 0-.494 25.11v33.366c0 8.524.18 16.937.494 25.213.325 8.276.672 16.407 1.055 24.425-2.96-.258-6.124-.38-9.49-.38-3.364 0-6.527.122-9.51.38.405-8.018.74-16.148 1.077-24.426.314-8.277.482-16.69.482-25.214V990.02c0-8.533-.17-16.9-.483-25.11zM886.285 949.883c-3.352 0-6.875.02-10.563.09-3.68.066-7.38.202-11.06.38-3.69.203-7.244.427-10.653.696a135.8 135.8 0 0 0-9.22.964c.628-2.332.964-4.396.964-6.213 0-1.413-.336-3.42-.964-6.01 8.524.268 16.867.493 25.02.683 8.133.19 16.476.28 25.022.28 8.523 0 16.868-.09 25.01-.28 8.142-.19 16.487-.415 25.022-.684-.64 2.59-.977 4.664-.977 6.212 0 1.682.337 3.68.977 6.012-2.713-.382-5.8-.718-9.208-.965-3.432-.27-6.987-.494-10.676-.696-3.68-.18-7.38-.314-11.058-.38-3.68-.07-7.21-.09-10.566-.09-.392 13.3-.583 26.69-.583 40.138v33.365c0 8.524.158 16.937.495 25.213.314 8.277.67 16.408 1.055 24.426-2.96-.258-6.146-.38-9.49-.38-3.364 0-6.548.122-9.51.38.382-8.018.742-16.148 1.078-24.426.315-8.276.472-16.688.472-25.213v-33.365c0-13.448-.193-26.838-.587-40.14zM1027.475 961.613a6586.66 6586.66 0 0 0 11.048 26.47 4244.832 4244.832 0 0 0 11.26 26.57c3.745 8.792 7.268 16.965 10.564 24.525 3.297 7.56 6.27 14.334 8.927 20.276 2.647 5.944 4.822 10.476 6.494 13.57a36.535 36.535 0 0 0-5.148-.38h-10.273c-1.616 0-3.33.122-5.136.38-.907-2.97-2.13-6.56-3.678-10.766a425.877 425.877 0 0 0-5.148-13.188c-1.872-4.577-3.778-9.24-5.72-13.954a940.94 940.94 0 0 1-5.427-13.48 777.995 777.995 0 0 0-12.606-.292 840.9 840.9 0 0 0-12.796-.1c-4.014 0-7.952.034-11.832.1-3.88.07-7.828.16-11.832.293a812.247 812.247 0 0 0-11.237 28.8c-3.366 9.108-5.9 16.645-7.583 22.588-2.197-.258-4.575-.38-7.167-.38-2.59 0-4.99.122-7.166.38a5342.782 5342.782 0 0 0 30.63-67.493 9546.21 9546.21 0 0 0 30.067-68.256h3.678c3.095 7.493 6.46 15.613 10.083 24.337zM988.3 908.77c1.94-1.954 4.274-2.92 6.988-2.92 2.714 0 5.035.966 6.988 2.92 1.928 1.927 2.892 4.26 2.892 6.974 0 2.714-.964 5.046-2.892 6.976-1.953 1.952-4.274 2.917-6.988 2.917-2.713 0-5.048-.965-6.987-2.917-1.93-1.93-2.916-4.262-2.916-6.976 0-2.714.986-5.048 2.917-6.975zm1.548 103.94c3.365 0 6.864.068 10.475.203 3.61.124 7.11.18 10.477.18a584.172 584.172 0 0 0 21.71-.38L1011 963.45l-21.152 49.258zm36.662-103.94c1.94-1.954 4.274-2.92 6.987-2.92 2.692 0 5.025.966 6.966 2.92 1.94 1.927 2.926 4.26 2.926 6.974 0 2.714-.988 5.046-2.927 6.976-1.94 1.952-4.274 2.917-6.966 2.917-2.713 0-5.046-.965-6.987-2.917-1.94-1.93-2.916-4.262-2.916-6.976 0-2.714.977-5.048 2.916-6.975zM1125.417 949.883c-3.363 0-6.885.02-10.575.09-3.68.066-7.37.202-11.047.38-3.68.203-7.246.427-10.666.696a137.18 137.18 0 0 0-9.232.964c.652-2.332.99-4.396.99-6.213 0-1.413-.338-3.42-.99-6.01 8.56.268 16.89.493 25.033.683 8.155.19 16.487.28 25.022.28s16.868-.09 25.022-.28c8.14-.19 16.486-.415 25.01-.684-.652 2.59-.965 4.664-.965 6.212 0 1.682.312 3.68.963 6.012a137.08 137.08 0 0 0-9.208-.965 450.61 450.61 0 0 0-10.678-.696c-3.678-.18-7.357-.314-11.046-.38-3.68-.07-7.223-.09-10.565-.09-.38 13.3-.583 26.69-.583 40.138v33.365c0 8.524.157 16.937.483 25.213.325 8.277.682 16.408 1.065 24.426-2.983-.258-6.135-.38-9.5-.38-3.364 0-6.538.122-9.51.38.392-8.018.75-16.148 1.077-24.426.313-8.276.47-16.688.47-25.213v-33.365c0-13.448-.188-26.838-.57-40.14zM1207.738 1054.892c1.75 2.39 3.88 4.563 6.394 6.492 2.512 1.94 5.472 3.533 8.825 4.757 3.365 1.235 7.123 1.84 11.25 1.84 4.272 0 8.108-.74 11.54-2.22 3.42-1.49 6.336-3.5 8.725-6.012 2.402-2.536 4.24-5.496 5.53-8.928 1.3-3.42 1.94-7.077 1.94-10.96 0-5.94-1.513-10.663-4.554-14.15-3.04-3.49-6.83-6.405-11.35-8.738a131.905 131.905 0 0 0-14.646-6.392c-5.226-1.953-10.116-4.362-14.637-7.27-4.53-2.914-8.31-6.638-11.35-11.158-3.04-4.52-4.553-10.598-4.553-18.224 0-5.43.964-10.375 2.916-14.84 1.93-4.462 4.755-8.31 8.435-11.54 3.68-3.23 8.12-5.752 13.278-7.56 5.16-1.815 10.993-2.713 17.452-2.713 6.213 0 11.575.74 16.093 2.22 4.52 1.504 8.737 3.79 12.617 6.888a41.595 41.595 0 0 0-2.917 6.986c-.772 2.456-1.547 5.55-2.332 9.296h-2.32c-.652-1.793-1.526-3.77-2.615-5.9-1.1-2.14-2.59-4.103-4.463-5.92-1.885-1.816-4.105-3.32-6.684-4.553-2.59-1.234-5.697-1.84-9.32-1.84s-6.94.582-9.992 1.74c-3.028 1.165-5.675 2.813-7.94 4.944-2.265 2.13-4.015 4.688-5.25 7.648-1.21 2.983-1.838 6.213-1.838 9.712 0 6.08 1.523 10.857 4.552 14.346 3.05 3.487 6.83 6.438 11.362 8.825 4.52 2.4 9.41 4.532 14.635 6.394 5.237 1.885 10.116 4.172 14.647 6.886a37.374 37.374 0 0 1 11.34 10.477c3.038 4.262 4.563 9.958 4.563 17.068 0 5.945-1.077 11.575-3.208 16.868a39.643 39.643 0 0 1-9.308 13.873c-4.06 3.938-9.05 6.99-14.928 9.12-5.888 2.13-12.572 3.195-20.076 3.195-8.018 0-14.512-1.065-19.48-3.196-4.98-2.13-9.152-4.565-12.516-7.28 1.166-2.97 1.973-5.663 2.422-8.04.447-2.4.874-5.474 1.268-9.22h2.32c1.034 2.336 2.425 4.69 4.174 7.08zM1305.3 964.62c-.325-8.277-.695-16.554-1.088-24.83 3.366.268 6.798.493 10.297.683a189 189 0 0 0 10.27.28c3.365 0 6.787-.156 10.274-.47 3.5-.326 6.93-.494 10.296-.494 5.54 0 10.788.425 15.7 1.256 4.913.852 9.244 2.332 12.988 4.462 3.747 2.132 6.73 5.025 8.928 8.637 2.197 3.61 3.297 8.144 3.297 13.57 0 9.578-3.006 17.07-9.017 22.498-6.022 5.428-13.862 9.24-23.563 11.44v.402c11.506.516 20.59 3.298 27.24 8.322 6.663 5.048 9.984 13.132 9.984 24.248 0 7.244-1.48 13.323-4.44 18.235-2.984 4.91-6.866 8.884-11.643 11.933-4.79 3.028-10.072 5.158-15.813 6.395a81.594 81.594 0 0 1-17.16 1.837c-3.095 0-6.235-.066-9.41-.202a243.66 243.66 0 0 0-9.396-.18h-9.41c-3.186 0-6.304.124-9.422.382.394-8.275.763-16.51 1.088-24.73.314-8.197.472-16.573.472-25.108v-33.354c0-8.548-.158-16.936-.472-25.213zm40.33 33.353c4.453-.896 8.444-2.42 11.92-4.553 3.5-2.13 6.315-4.98 8.447-8.535 2.12-3.555 3.196-8.04 3.196-13.48 0-5.304-.965-9.532-2.917-12.706-1.93-3.164-4.397-5.63-7.368-7.37-2.973-1.74-6.337-2.905-10.07-3.488a73.11 73.11 0 0 0-11.25-.874c-3.365 0-6.213.09-8.546.29-2.322.192-4.396.427-6.202.675-.258 6.213-.516 12.358-.774 18.438a434.074 434.074 0 0 0-.38 18.416v14.547h10.475c4.52 0 9.006-.46 13.47-1.36zm-23.564 47.9c.258 6.473.517 13 .774 19.595 2.456.258 5.36.482 8.727.673 3.353.202 6.795.293 10.284.293 4.15 0 8.11-.707 11.934-2.132 3.802-1.412 7.133-3.52 9.98-6.303 2.85-2.78 5.105-6.212 6.786-10.283 1.683-4.07 2.523-8.692 2.523-13.875 0-5.54-.998-10.093-3.005-13.66-1.995-3.557-4.878-6.337-8.636-8.345-3.745-1.994-8.242-3.387-13.47-4.17-5.248-.774-11.09-1.156-17.562-1.156h-8.714v19.77c0 6.61.12 13.123.38 19.593zM1424.754 964.91c-.314-8.21-.673-16.576-1.065-25.12 1.68.268 3.285.493 4.843.683 1.547.19 3.108.28 4.655.28a38.4 38.4 0 0 0 4.654-.28c1.56-.19 3.174-.415 4.855-.684-.38 8.544-.74 16.91-1.076 25.12-.313 8.21-.47 16.577-.47 25.11v33.366c0 8.524.157 16.937.47 25.213.337 8.276.697 16.407 1.077 24.425-2.983-.258-6.146-.38-9.51-.38s-6.526.122-9.498.38c.39-8.018.75-16.148 1.064-24.426a622.03 622.03 0 0 0 .493-25.214V990.02c0-8.533-.157-16.9-.493-25.11zM1479.642 964.62c-.326-8.277-.695-16.554-1.08-24.83 3.367.268 6.8.493 10.298.683 3.488.19 6.908.28 10.273.28 3.364 0 6.774-.156 10.273-.47 3.487-.326 6.93-.494 10.285-.494 5.553 0 10.8.425 15.712 1.256 4.913.852 9.242 2.332 12.99 4.462 3.744 2.132 6.728 5.025 8.925 8.637 2.2 3.61 3.286 8.144 3.286 13.57 0 9.578-3.006 17.07-9.005 22.498-6.034 5.428-13.875 9.24-23.575 11.44v.402c11.506.516 20.592 3.298 27.254 8.322 6.66 5.048 9.98 13.132 9.98 24.248 0 7.244-1.48 13.323-4.452 18.235-2.972 4.91-6.852 8.884-11.642 11.933-4.788 3.028-10.06 5.158-15.8 6.395a81.747 81.747 0 0 1-17.16 1.837c-3.108 0-6.237-.066-9.422-.202-3.163-.122-6.278-.18-9.396-.18h-9.4c-3.184 0-6.312.124-9.42.382.383-8.275.753-16.51 1.08-24.73.313-8.197.47-16.573.47-25.108v-33.354c0-8.548-.158-16.936-.472-25.213zm40.33 33.353c4.462-.896 8.443-2.42 11.93-4.553 3.5-2.13 6.305-4.98 8.436-8.535 2.13-3.555 3.207-8.04 3.207-13.48 0-5.304-.974-9.532-2.915-12.706-1.94-3.164-4.397-5.63-7.38-7.37-2.96-1.74-6.326-2.905-10.07-3.488a72.887 72.887 0 0 0-11.25-.874c-3.354 0-6.203.09-8.536.29a116.45 116.45 0 0 0-6.213.675c-.246 6.213-.514 12.358-.762 18.438a416.39 416.39 0 0 0-.392 18.416v14.547h10.475c4.52 0 9.008-.46 13.47-1.36zm-23.553 47.9c.247 6.473.515 13 .762 19.595 2.467.258 5.36.482 8.727.673 3.363.202 6.794.293 10.294.293 4.137 0 8.097-.707 11.92-2.132 3.804-1.412 7.146-3.52 9.994-6.303 2.848-2.78 5.092-6.212 6.773-10.283 1.684-4.07 2.536-8.692 2.536-13.875 0-5.54-1.01-10.093-3.017-13.66-1.996-3.557-4.88-6.337-8.624-8.345-3.747-1.994-8.255-3.387-13.48-4.17-5.25-.774-11.093-1.156-17.564-1.156h-8.715v19.77c0 6.61.123 13.123.392 19.593zM1599.106 964.91c-.325-8.21-.684-16.576-1.076-25.12 1.68.268 3.297.493 4.844.683 1.548.19 3.107.28 4.666.28 1.546 0 3.095-.09 4.643-.28 1.56-.19 3.185-.415 4.867-.684a3932.47 3932.47 0 0 0-1.077 25.12 656.657 656.657 0 0 0-.482 25.11c0 16.297.056 30.43.192 42.385.134 11.955.258 22.655.38 32.086 9.185 0 17.99-.1 26.384-.278 8.39-.202 17.44-.943 27.142-2.243-.64 2.33-.953 4.26-.953 5.818 0 1.424.314 3.175.953 5.237-5.956-.258-11.9-.38-17.844-.38h-35.771a432.5 432.5 0 0 0-17.943.38c.392-8.018.75-16.148 1.076-24.426.325-8.277.482-16.69.482-25.214V990.02c0-8.533-.157-16.9-.482-25.11zM1697.033 964.91c-.326-8.21-.685-16.576-1.076-25.12 1.68.268 3.308.493 4.866.683 1.55.19 3.096.28 4.643.28 1.56 0 3.108-.09 4.666-.28 1.548-.19 3.163-.415 4.846-.684-.394 8.544-.753 16.91-1.077 25.12a634.855 634.855 0 0 0-.48 25.11v33.366c0 8.524.156 16.937.48 25.213.325 8.276.685 16.407 1.078 24.425-2.984-.258-6.146-.38-9.51-.38-3.365 0-6.528.122-9.51.38.392-8.018.75-16.148 1.076-24.426.313-8.277.47-16.69.47-25.214V990.02c0-8.533-.158-16.9-.47-25.11zM1746.872 977.317c3.566-8.593 8.536-15.87 14.927-21.827 6.403-5.932 14.075-10.453 22.99-13.57 8.917-3.095 18.674-4.643 29.283-4.643 10.724 0 20.547 1.548 29.476 4.644 8.924 3.117 16.586 7.64 22.99 13.57 6.393 5.956 11.37 13.234 14.94 21.827 3.542 8.602 5.324 18.392 5.324 29.383 0 10.992-1.782 20.782-5.325 29.384-3.57 8.602-8.548 15.87-14.94 21.826-6.404 5.942-14.066 10.36-22.99 13.28-8.93 2.903-18.753 4.36-29.477 4.36-10.61 0-20.366-1.457-29.283-4.36-8.915-2.92-16.587-7.338-22.99-13.28-6.392-5.956-11.36-13.225-14.928-21.826-3.544-8.602-5.338-18.392-5.338-29.384s1.794-20.782 5.338-29.383zm116.864 1.546c-2.715-7.818-6.504-14.277-11.35-19.38-4.846-5.114-10.543-8.894-17.07-11.35-6.526-2.456-13.615-3.68-21.242-3.68-7.49 0-14.513 1.224-21.05 3.68-6.516 2.456-12.215 6.235-17.06 11.35-4.855 5.103-8.635 11.562-11.35 19.38-2.714 7.828-4.06 17.114-4.06 27.836 0 10.732 1.346 20.007 4.06 27.836 2.715 7.828 6.494 14.29 11.35 19.38 4.845 5.113 10.544 8.905 17.06 11.35 6.537 2.468 13.56 3.688 21.05 3.688 7.627 0 14.716-1.22 21.24-3.688 6.53-2.444 12.227-6.236 17.07-11.35 4.848-5.09 8.637-11.552 11.352-19.38 2.713-7.83 4.06-17.104 4.06-27.837 0-10.722-1.347-20.008-4.06-27.837zM1934.122 949.883c-3.363 0-6.887.02-10.563.09-3.682.066-7.36.202-11.037.38-3.702.203-7.245.427-10.68.696-3.43.246-6.503.582-9.217.964.65-2.332.975-4.396.975-6.213 0-1.413-.324-3.42-.974-6.01 8.534.268 16.867.493 25.01.683 8.154.19 16.486.28 25.032.28 8.524 0 16.87-.09 25.01-.28 8.142-.19 16.487-.415 25.01-.684-.638 2.59-.952 4.664-.952 6.212 0 1.682.314 3.68.953 6.012a137.33 137.33 0 0 0-9.198-.965c-3.43-.27-6.997-.494-10.676-.696-3.68-.18-7.357-.314-11.035-.38-3.7-.07-7.224-.09-10.587-.09-.383 13.3-.57 26.69-.57 40.138v33.365c0 8.524.166 16.937.48 25.213.325 8.277.685 16.408 1.076 24.426-2.995-.258-6.157-.38-9.512-.38-3.365 0-6.527.122-9.51.38.394-8.018.75-16.148 1.076-24.426a667.22 667.22 0 0 0 .483-25.213v-33.365c0-13.448-.202-26.838-.595-40.14zM2113.03 964.91c-.313-8.21-.673-16.576-1.068-25.12 1.683.268 3.31.493 4.85.683 1.556.19 3.105.28 4.652.28 1.547 0 3.105-.09 4.653-.28 1.56-.19 3.173-.415 4.855-.684-.38 8.544-.74 16.91-1.076 25.12a656.908 656.908 0 0 0-.472 25.11v33.366c0 8.524.157 16.937.472 25.213.337 8.276.696 16.407 1.076 24.425-2.97-.258-6.145-.38-9.51-.38s-6.526.122-9.5.38c.395-8.018.754-16.148 1.068-24.426.334-8.277.49-16.69.49-25.214v-17.45c-6.986-.133-13.75-.247-20.266-.303-6.537-.067-13.29-.102-20.275-.102-6.988 0-13.74.035-20.268.103-6.516.056-13.28.17-20.255.303v17.45c0 8.524.158 16.937.472 25.213.336 8.276.695 16.407 1.075 24.425-2.982-.258-6.146-.38-9.51-.38-3.365 0-6.528.122-9.5.38.39-8.018.75-16.148 1.065-24.426.336-8.277.492-16.69.492-25.214V990.02c0-8.533-.156-16.9-.492-25.11a3413.01 3413.01 0 0 0-1.065-25.12c1.683.268 3.285.493 4.844.683 1.56.19 3.105.28 4.654.28 1.547 0 3.106-.09 4.665-.28 1.548-.19 3.163-.415 4.845-.684-.38 8.544-.74 16.91-1.076 25.12a658.966 658.966 0 0 0-.473 25.11v6.787c6.975.134 13.74.27 20.255.392a1074.945 1074.945 0 0 0 40.542 0c6.516-.124 13.28-.26 20.267-.393v-6.786c0-8.533-.155-16.9-.49-25.11zM2167.916 964.62c-.313-8.277-.673-16.554-1.053-24.83 5.808.268 11.597.493 17.358.683 5.745.19 11.53.28 17.353.28 5.82 0 11.563-.09 17.26-.28 5.697-.19 11.44-.415 17.25-.684-.383 1.95-.562 3.88-.562 5.82 0 1.94.18 3.88.562 5.82-4.126-.26-7.917-.517-11.327-.773-3.432-.26-7.065-.528-10.87-.774-3.823-.27-7.994-.494-12.514-.684-4.52-.192-9.958-.282-16.272-.282a766.533 766.533 0 0 1-.493 11.82c-.2 3.746-.292 8.01-.292 12.81 0 5.033.034 9.945.09 14.736.066 4.777.103 8.39.103 10.855 5.686 0 10.787-.068 15.31-.203 4.527-.122 8.68-.292 12.423-.482a1033.9 1033.9 0 0 0 10.375-.583c3.152-.19 6.18-.414 9.028-.673a30.088 30.088 0 0 0-.596 6.013c0 1.938.202 3.87.596 5.818-3.366-.403-7.28-.718-11.754-.975-4.442-.258-8.917-.414-13.37-.483-4.465-.064-8.67-.134-12.606-.2-3.946-.057-7.087-.09-9.407-.09a79.18 79.18 0 0 1-.102 3.792c-.057 1.345-.09 3.072-.09 5.136v19.19c0 7.368.033 13.446.09 18.234.065 4.79.178 8.402.303 10.857h13.557c4.913 0 9.736-.1 14.47-.278 4.71-.202 9.173-.46 13.37-.786 4.19-.314 7.858-.807 10.967-1.457-.27.918-.426 1.905-.493 3.004-.07 1.1-.09 2.108-.09 3.006 0 2.075.19 3.746.582 5.046a392.35 392.35 0 0 0-17.362-.38h-35.202c-5.822 0-11.7.122-17.643.38.38-8.275.74-16.51 1.053-24.73.336-8.197.494-16.573.494-25.108v-33.354c0-8.55-.16-16.937-.496-25.214zM2265.87 1048.6c.314-8.276.47-16.688.47-25.213v-33.365c0-8.534-.155-16.9-.47-25.11-.338-8.21-.695-16.577-1.077-25.122 1.67.27 3.3.494 4.846.684 1.547.19 3.105.28 4.665.28 1.547 0 3.095-.09 4.644-.28 1.557-.19 3.16-.415 4.843-.684-.38 8.545-.74 16.912-1.054 25.122a614.17 614.17 0 0 0-.496 25.11v10.666c0 1.032.383 1.548 1.168 1.548.517 0 1.412-.583 2.714-1.74 4.53-3.88 9.286-8.274 14.254-13.198 4.97-4.9 9.995-10.004 15.03-15.31a713.628 713.628 0 0 0 14.928-16.194c4.91-5.496 9.63-10.822 14.152-16.004 1.436.27 2.793.494 4.083.684 1.3.19 2.59.28 3.88.28 1.548 0 3.107-.09 4.665-.28a92.645 92.645 0 0 0 4.644-.684c-4.52 3.88-9.634 8.48-15.32 13.77a1195.4 1195.4 0 0 0-17.158 16.286 760.844 760.844 0 0 0-16.488 16.396c-5.25 5.36-9.6 10.05-13.088 14.063a4635.932 4635.932 0 0 1 31.695 35.978 4306.287 4306.287 0 0 0 32.49 36.742c-1.94-.258-3.88-.38-5.81-.38h-11.157c-1.74 0-3.522.122-5.33.38-4.664-5.292-9.8-11.37-15.42-18.224a2824.125 2824.125 0 0 0-16.475-19.884 5932.172 5932.172 0 0 0-14.558-17.248c-4.33-5.116-7.537-8.704-9.6-10.778-1.044-1.022-1.816-1.537-2.322-1.537-.662 0-.977.38-.977 1.155v16.878c0 8.524.16 16.937.495 25.213.313 8.276.673 16.407 1.054 24.425-2.973-.258-6.125-.38-9.487-.38-3.366 0-6.552.122-9.512.38.382-8.017.74-16.148 1.077-24.425zM2544.548 956.467c-2.918-2.322-6.146-4.363-9.69-6.113-3.567-1.738-7.517-3.162-11.833-4.262-4.34-1.1-8.96-1.638-13.873-1.638-8.007 0-15.488 1.224-22.397 3.68-6.92 2.456-12.93 6.235-18.032 11.35-5.116 5.103-9.12 11.562-12.035 19.38-2.916 7.828-4.362 17.114-4.362 27.836 0 9.442 1.29 17.968 3.88 25.603 2.59 7.64 6.36 14.055 11.352 19.292 4.967 5.237 11.045 9.275 18.223 12.122 7.18 2.85 15.288 4.264 24.34 4.264a98.91 98.91 0 0 0 8.546-.38c2.96-.27 5.832-.65 8.612-1.166 2.78-.517 5.373-1.167 7.762-1.94 2.4-.776 4.42-1.67 6.1-2.715.136-3.87.235-7.75.315-11.63.046-3.882.078-7.83.078-11.845 0-4.508-.078-9.04-.28-13.57-.202-4.52-.427-8.86-.685-12.986 3.24.648 6.336.963 9.32.963 1.412 0 2.836-.068 4.262-.203 1.424-.11 2.782-.38 4.06-.76-.247 2.96-.437 7.657-.562 14.062-.134 6.393-.2 14.827-.2 25.3 0 2.592.02 5.206.088 7.852.07 2.646.112 5.27.112 7.85-2.725 1.045-6.11 2.11-10.194 3.21-4.07 1.098-8.4 2.006-12.997 2.713a490.835 490.835 0 0 1-13.763 1.93c-4.597.582-8.76.886-12.505.886-11.52 0-21.893-1.4-31.135-4.16-9.24-2.78-17.093-7.09-23.563-12.898-6.472-5.832-11.44-13.077-14.927-21.734-3.5-8.658-5.237-18.684-5.237-30.057 0-10.99 1.805-20.78 5.415-29.383 3.623-8.593 8.738-15.87 15.344-21.827 6.594-5.932 14.556-10.453 23.933-13.57 9.375-3.095 19.76-4.643 31.134-4.643 6.582 0 12.427.36 17.553 1.066 5.102.705 9.62 1.647 13.582 2.814 3.925 1.155 7.4 2.378 10.36 3.68 2.984 1.3 5.632 2.522 7.952 3.677-1.03 1.818-1.963 4.15-2.815 6.976-.83 2.85-1.38 5.52-1.637 7.964h-2.335c-1.93-2.337-4.364-4.67-7.267-6.99zM2587.008 977.317c3.566-8.593 8.545-15.87 14.938-21.827 6.404-5.932 14.065-10.453 22.992-13.57 8.914-3.095 18.674-4.643 29.27-4.643 10.722 0 20.56 1.548 29.475 4.644 8.93 3.117 16.587 7.64 22.99 13.57 6.396 5.956 11.375 13.234 14.94 21.827 3.545 8.602 5.327 18.392 5.327 29.383 0 10.992-1.782 20.782-5.328 29.384-3.564 8.602-8.543 15.87-14.94 21.826-6.402 5.942-14.06 10.36-22.99 13.28-8.913 2.903-18.752 4.36-29.473 4.36-10.598 0-20.357-1.457-29.272-4.36-8.927-2.92-16.588-7.338-22.992-13.28-6.394-5.956-11.372-13.225-14.938-21.826-3.544-8.602-5.327-18.392-5.327-29.384s1.784-20.782 5.328-29.383zm116.863 1.546c-2.714-7.818-6.504-14.277-11.36-19.38-4.833-5.114-10.53-8.894-17.058-11.35-6.527-2.456-13.604-3.68-21.243-3.68-7.493 0-14.512 1.224-21.04 3.68-6.527 2.456-12.224 6.235-17.06 11.35-4.853 5.103-8.645 11.562-11.36 19.38-2.712 7.828-4.06 17.114-4.06 27.836 0 10.732 1.348 20.007 4.06 27.836 2.715 7.828 6.507 14.29 11.36 19.38 4.836 5.113 10.532 8.905 17.06 11.35 6.528 2.468 13.547 3.688 21.04 3.688 7.64 0 14.715-1.22 21.242-3.688 6.526-2.444 12.225-6.236 17.057-11.35 4.856-5.09 8.646-11.552 11.36-19.38 2.714-7.83 4.06-17.104 4.06-27.837 0-10.722-1.346-20.008-4.06-27.837zm-75.646-70.094c1.94-1.954 4.272-2.92 6.99-2.92 2.712 0 5.043.966 6.975 2.92 1.937 1.927 2.903 4.26 2.903 6.974 0 2.714-.966 5.046-2.904 6.976-1.933 1.952-4.264 2.917-6.977 2.917-2.717 0-5.05-.965-6.99-2.917-1.938-1.93-2.904-4.262-2.904-6.976 0-2.714.964-5.048 2.904-6.975zm38.21 0c1.93-1.954 4.264-2.92 6.976-2.92 2.715 0 5.05.966 6.99 2.92 1.94 1.927 2.903 4.26 2.903 6.974 0 2.714-.963 5.046-2.904 6.976-1.94 1.952-4.275 2.917-6.99 2.917-2.712 0-5.045-.965-6.977-2.917-1.95-1.93-2.902-4.262-2.902-6.976 0-2.714.953-5.048 2.903-6.975zM2781.437 949.883c-3.366 0-6.887.02-10.566.09-3.7.066-7.376.202-11.056.38-3.68.203-7.235.427-10.678.696-3.408.246-6.482.582-9.197.964.64-2.332.963-4.396.963-6.213 0-1.413-.323-3.42-.964-6.01 8.525.268 16.866.493 25.01.683 8.142.19 16.487.28 25.01.28 8.546 0 16.878-.09 25.034-.28a3016.1 3016.1 0 0 0 25.01-.684c-.65 2.59-.964 4.664-.964 6.212 0 1.682.313 3.68.964 6.012a136.695 136.695 0 0 0-9.22-.965c-3.41-.27-6.976-.494-10.655-.696a365.72 365.72 0 0 0-11.06-.38c-3.68-.07-7.198-.09-10.564-.09-.392 13.3-.58 26.69-.58 40.138v33.365c0 8.524.154 16.937.48 25.213.324 8.277.685 16.408 1.076 24.426-2.994-.258-6.158-.38-9.522-.38-3.354 0-6.518.122-9.487.38.38-8.018.74-16.148 1.055-24.426.322-8.276.49-16.688.49-25.213v-33.365c0-13.448-.2-26.838-.58-40.14zM2890.246 949.883c-3.366 0-6.885.02-10.587.09-3.68.066-7.357.202-11.048.38-3.68.203-7.236.427-10.667.696-3.43.246-6.493.582-9.206.964.638-2.332.964-4.396.964-6.213 0-1.413-.326-3.42-.965-6.01 8.535.268 16.866.493 25.02.683 8.142.19 16.486.28 25.01.28 8.547 0 16.87-.09 25.034-.28 8.14-.19 16.463-.415 25.01-.684-.65 2.59-.99 4.664-.99 6.212 0 1.682.34 3.68.99 6.012a136.626 136.626 0 0 0-9.22-.965c-3.432-.27-6.976-.494-10.677-.696-3.68-.18-7.36-.314-11.035-.38-3.68-.07-7.223-.09-10.565-.09-.405 13.3-.606 26.69-.606 40.138v33.365c0 8.524.183 16.937.495 25.213.314 8.277.673 16.408 1.076 24.426-2.98-.258-6.145-.38-9.51-.38s-6.526.122-9.508.38c.378-8.018.74-16.148 1.075-24.426.314-8.276.47-16.688.47-25.213v-33.365c0-13.448-.178-26.838-.56-40.14zM2972.184 964.91a6268.04 6268.04 0 0 0-1.076-25.12 133.6 133.6 0 0 0 4.848.683c1.545.19 3.095.28 4.665.28 1.546 0 3.096-.09 4.645-.28 1.545-.19 3.185-.415 4.867-.684-.404 8.544-.766 16.91-1.08 25.12a660.505 660.505 0 0 0-.492 25.11v33.366c0 8.524.182 16.937.493 25.213.313 8.276.675 16.407 1.08 24.425a111.39 111.39 0 0 0-9.512-.38c-3.365 0-6.528.122-9.512.38.384-8.018.74-16.148 1.076-24.426a665.32 665.32 0 0 0 .473-25.214V990.02c0-8.533-.16-16.9-.473-25.11zM3089.206 1022.692a12473.222 12473.222 0 0 0-50.425-53.81c-.11 3.62-.245 8.478-.38 14.535-.136 6.078-.18 14.354-.18 24.83 0 2.714.023 6.08.087 10.093.07 4.005.113 8.21.204 12.606.048 4.396.16 8.85.27 13.368.135 4.53.27 8.737.405 12.618.135 3.87.246 7.28.38 10.184.137 2.905.27 4.88.383 5.91-2.065-.26-4.31-.382-6.773-.382-2.58 0-4.98.123-7.18.38.246-1.3.56-3.677.875-7.176.313-3.5.605-7.66.875-12.518.247-4.844.54-10.115.874-15.79.315-5.697.582-11.372.785-17.07.18-5.697.338-11.26.472-16.678.112-5.438.202-10.283.202-14.545 0-12.404-.048-23.08-.112-32.01-.07-8.904-.225-15.565-.496-19.962h3.117c7.874 8.524 16.308 17.675 25.323 27.433 8.974 9.77 17.9 19.402 26.74 28.89a6807.553 6807.553 0 0 0 25.233 26.963c7.94 8.48 14.87 15.68 20.84 21.624v-26.38c0-13.57-.09-26.78-.294-39.655-.202-12.855-.627-24.98-1.28-36.36 2.603.65 4.8.964 6.596.964 1.57 0 3.634-.314 6.215-.965-.248 2.85-.537 7.11-.877 12.806-.314 5.698-.65 11.755-.964 18.226-.337 6.472-.604 12.797-.875 19.01-.245 6.203-.382 11.182-.382 14.94v11.617c0 4.396.024 8.994.09 13.77.067 4.803.138 9.602.202 14.458.068 4.844.11 9.366.202 13.57.045 4.206.09 7.86.09 10.958v6.403h-2.717c-14.87-17.192-30.702-34.812-47.527-52.858zM3283.25 956.467c-2.914-2.322-6.145-4.363-9.71-6.113-3.545-1.738-7.49-3.162-11.82-4.262-4.33-1.1-8.95-1.638-13.863-1.638-8.006 0-15.5 1.224-22.408 3.68-6.91 2.456-12.92 6.235-18.036 11.35-5.092 5.103-9.107 11.562-12.02 19.38-2.894 7.828-4.353 17.114-4.353 27.836 0 9.442 1.3 17.968 3.883 25.603 2.578 7.64 6.37 14.055 11.324 19.292 4.98 5.237 11.06 9.275 18.24 12.122 7.173 2.85 15.294 4.264 24.355 4.264 2.716 0 5.542-.122 8.504-.38a93.12 93.12 0 0 0 8.634-1.166 62.33 62.33 0 0 0 7.76-1.94c2.402-.776 4.442-1.67 6.124-2.715.112-3.87.224-7.75.27-11.63.092-3.882.114-7.83.114-11.845 0-4.508-.113-9.04-.293-13.57-.2-4.52-.426-8.86-.694-12.986 3.252.648 6.346.963 9.334.963 1.41 0 2.823-.068 4.26-.203a20.2 20.2 0 0 0 4.08-.76c-.268 2.96-.47 7.657-.604 14.062-.11 6.393-.18 14.827-.18 25.3 0 2.592.02 5.206.09 7.852.066 2.646.09 5.27.09 7.85-2.715 1.045-6.102 2.11-10.16 3.21-4.084 1.098-8.414 2.006-13.012 2.713a474.325 474.325 0 0 1-13.77 1.93c-4.577.582-8.75.886-12.496.886-11.507 0-21.892-1.4-31.134-4.16-9.24-2.78-17.113-7.09-23.55-12.898-6.462-5.832-11.463-13.077-14.94-21.734-3.498-8.658-5.248-18.684-5.248-30.057 0-10.99 1.82-20.78 5.45-29.383 3.612-8.593 8.703-15.87 15.298-21.827 6.594-5.932 14.58-10.453 23.956-13.57 9.376-3.095 19.762-4.643 31.134-4.643 6.593 0 12.45.36 17.563 1.066 5.092.705 9.626 1.647 13.57 2.814 3.948 1.155 7.403 2.378 10.364 3.68a180.91 180.91 0 0 1 7.963 3.677c-1.032 1.818-1.975 4.15-2.827 6.976-.83 2.85-1.39 5.52-1.636 7.964h-2.333c-1.927-2.337-4.35-4.67-7.27-6.99zM3330.762 964.62c-.314-8.277-.677-16.554-1.08-24.83 5.834.268 11.62.493 17.362.683a527 527 0 0 0 17.36.28c5.832 0 11.573-.09 17.272-.28a1350 1350 0 0 0 17.27-.684 28.487 28.487 0 0 0-.605 5.82c0 1.94.202 3.88.607 5.82-4.15-.26-7.94-.517-11.37-.773-3.41-.26-7.022-.528-10.86-.774a437.19 437.19 0 0 0-12.494-.684c-4.528-.192-9.96-.282-16.303-.282a560.363 560.363 0 0 1-.474 11.82c-.202 3.746-.293 8.01-.293 12.81 0 5.033.026 9.945.09 14.736.07 4.777.114 8.39.114 10.855 5.676 0 10.788-.068 15.32-.203 4.507-.122 8.635-.292 12.404-.482 3.745-.19 7.2-.392 10.386-.583a290.65 290.65 0 0 0 8.994-.673c-.382 1.94-.56 3.936-.56 6.013 0 1.938.178 3.87.56 5.818-3.364-.403-7.27-.718-11.71-.975a317.69 317.69 0 0 0-13.41-.483c-4.442-.064-8.64-.134-12.585-.2a703.66 703.66 0 0 0-9.398-.09c0 1.166-.044 2.422-.113 3.792-.064 1.345-.09 3.072-.09 5.136v19.19c0 7.368.025 13.446.09 18.234.07 4.79.16 8.402.293 10.857h13.57c4.935 0 9.734-.1 14.443-.278a386.15 386.15 0 0 0 13.393-.786c4.194-.314 7.852-.807 10.945-1.457-.245.918-.404 1.905-.47 3.004a48.6 48.6 0 0 0-.09 3.006c0 2.075.18 3.746.56 5.046-5.81-.258-11.594-.38-17.34-.38h-35.192c-5.832 0-11.71.122-17.677.38.402-8.275.765-16.51 1.08-24.73.312-8.197.49-16.573.49-25.108v-33.354c0-8.55-.175-16.937-.488-25.214zM3490.87 1022.692a16543.156 16543.156 0 0 0-50.425-53.81c-.134 3.62-.27 8.478-.404 14.535-.11 6.078-.2 14.354-.2 24.83 0 2.714.046 6.08.11 10.093.05 4.005.135 8.21.18 12.606.068 4.396.182 8.85.315 13.368.112 4.53.245 8.737.38 12.618.137 3.87.27 7.28.382 10.184.134 2.905.27 4.88.403 5.91-2.086-.26-4.35-.382-6.795-.382-2.604 0-4.98.123-7.18.38.246-1.3.54-3.677.875-7.176.314-3.5.605-7.66.852-12.518.27-4.844.564-10.115.877-15.79.336-5.697.603-11.372.782-17.07.203-5.697.358-11.26.496-16.678.133-5.438.177-10.283.177-14.545 0-12.404-.02-23.08-.09-32.01-.065-8.904-.225-15.565-.47-19.962h3.094c7.896 8.524 16.33 17.675 25.304 27.433a4137.523 4137.523 0 0 0 26.78 28.89c8.837 9.512 17.25 18.507 25.19 26.963 7.94 8.48 14.915 15.68 20.858 21.624v-26.38c0-13.57-.11-26.78-.29-39.655-.2-12.855-.627-24.98-1.255-36.36 2.578.65 4.776.964 6.594.964 1.55 0 3.61-.314 6.193-.965-.25 2.85-.563 7.11-.877 12.806-.314 5.698-.65 11.755-.965 18.226-.313 6.472-.604 12.797-.873 19.01-.245 6.203-.382 11.182-.382 14.94v11.617c0 4.396.025 8.994.09 13.77l.202 14.458c.044 4.844.133 9.366.202 13.57.043 4.206.09 7.86.09 10.958v6.403h-2.716c-14.87-17.192-30.706-34.812-47.504-52.858z"/></g></g><path d="M2100.85 284.503v104.14h107.442c4.44 0 8.7-.24 12.783-.718-6.1 10.913-14.534 19.032-25.658 24.993-11.116 5.78-24.385 8.652-39.792 8.652H2048.18V284.503h52.67zm0-190.464v96.104h100.96c4.936 0 9.678-.26 14.175-.81-3.186 6.4-7.582 11.99-13.167 16.757-13.154 11.334-31.076 17.003-53.7 17.003h-100.937V94.04h52.67zm177.628 195.41a126.055 126.055 0 0 0-7.483-9.337c-5.64-8.26-13.378-14.877-23.192-19.884-6.314-3.748-11.92-6.484-17.798-8.76 10.7-4.105 20.68-10.588 29.922-19.438 9.287-9.044 16.665-20.052 22.23-33.034 5.764-13.16 8.656-27.466 8.656-42.898 0-24.914-5.563-46.61-16.665-65.126-10.924-18.735-26.76-33.042-47.542-42.933-20.59-10.07-44.445-15.1-71.63-15.1h-122.65V0h175.338c27.175 0 51.052 5.048 71.643 15.137 20.73 9.868 36.585 24.185 47.498 42.903 11.125 18.522 16.688 40.242 16.688 65.122 0 15.444-2.895 29.754-8.648 42.91-5.55 12.98-12.952 23.983-22.227 33.045-9.243 8.85-19.235 15.337-29.945 19.436 19.347 7.414 35.496 20.064 48.46 37.97 12.978 17.906 19.46 40.038 19.46 66.37 0 27.17-5.766 50.32-17.27 69.45-11.352 18.94-27.413 33.344-48.17 43.215a138.177 138.177 0 0 1-17.015 6.68c4.653-5.177 8.815-10.83 12.494-16.953 11.506-19.162 17.27-42.304 17.27-69.46 0-26.343-6.473-48.47-19.424-66.376zM1478.632 30.77c6.84 4.928 13.514 10.423 19.985 16.47l-43.852 43.2c-9.04-8.838-18.718-15.73-28.99-20.67-10.31-5.153-20.996-8.743-32.11-10.806-11.116-2.265-23.373-3.393-36.743-3.4-13.2 0-24.986 1.796-35.372 5.357a63.69 63.69 0 0 1 6.74-15.29c6.583-10.706 16.025-19.044 28.387-25.017 12.358-5.96 27.06-8.95 44.164-8.95 13.347 0 25.606 1.145 36.72 3.4 11.115 2.062 21.803 5.65 32.098 10.805a102.89 102.89 0 0 1 8.974 4.9zm-34.072 310.948c1.458-5.636 2.197-11.714 2.197-18.208 0-20.367-5.967-35.9-17.91-46.61-5.35-5.35-11.632-9.36-18.832-12.03-6.998-2.893-17.08-5.248-30.235-7.11l-53.116-7.4c-36.63-5.148-65.14-17.2-85.505-36.142-21.805-20.362-32.717-48.956-32.717-85.803 0-26.126 6.068-49.18 18.225-69.147 10.286-16.913 24.338-30.584 42.193-41.01-10.99 19.292-16.51 41.374-16.51 66.26 0 36.837 10.903 65.442 32.728 85.82 20.378 18.92 48.854 30.97 85.505 36.107l53.093 7.408c13.168 1.872 23.25 4.228 30.248 7.1 7.19 2.674 13.47 6.695 18.82 12.038 11.943 10.718 17.922 26.234 17.922 46.607-.035 21.824-8.244 38.804-24.708 50.94-6.245 4.592-13.368 8.333-21.398 11.18zm-251.537 52.79l44.188-43.61c21.13 21.045 44.28 36.18 69.47 45.393 25.525 9.058 55.47 13.583 89.834 13.583 23.663 0 45.264-2.894 64.823-8.64 13.48-4.13 25.795-9.562 36.92-16.314-7.47 12.942-17.337 24.263-29.585 33.976-14.603 11.52-31.706 20.277-51.253 26.238-19.54 5.765-41.15 8.62-64.825 8.647-34.364 0-64.297-4.53-89.812-13.59-25.325-9.26-48.574-24.485-69.76-45.682zM1614.47 0h52.685v295.106c0 19.75 3.803 37.056 11.416 51.854a94.018 94.018 0 0 0 4.803 8.165c-9.063-1.93-17.42-5.046-25.077-9.33-14-8.025-24.804-19.342-32.395-33.944-7.615-14.826-11.428-32.12-11.428-51.87V0zm307.34 298.197c0 30.456-7 57.523-20.975 81.182-14.02 23.674-33.342 41.983-58.05 54.942-24.472 12.976-52.062 19.46-82.723 19.46-30.45 0-57.928-6.484-82.41-19.46-14.244-7.53-26.693-16.855-37.37-28.02 20.457 8.237 42.83 12.335 67.1 12.335 30.652 0 58.242-6.47 82.725-19.44 24.687-12.95 44.042-31.27 58.04-54.944 13.995-23.653 20.994-50.71 20.994-81.177V0h52.668v298.197z" fill="#003967"/></svg>